<ttFont>
<head>
    <!-- Most of this table will be recalculated by the compiler -->
    <tableVersion value="1.0"/>
    <fontRevision value="9.0"/>
    <checkSumAdjustment value="0x9830f695"/>
    <magicNumber value="0x5f0f3cf5"/>
    <flags value="00000000 00011111"/>
    <unitsPerEm value="2048"/>
    <created value="Mon Feb 09 10:45:27 2015"/>
    <modified value="Mon Feb 09 10:45:27 2015"/>
    <xMin value="-133"/>
    <yMin value="-500"/>
    <xMax value="1872"/>
    <yMax value="1788"/>
    <macStyle value="00000000 00000000"/>
    <lowestRecPPEM value="8"/>
    <fontDirectionHint value="2"/>
    <indexToLocFormat value="0"/>
    <glyphDataFormat value="0"/>
  </head>
    <TTGlyph name=".notdef" xMin="68" yMin="0" xMax="612" yMax="1365">
      <contour>
        <pt x="68" y="0" on="1"/>
        <pt x="68" y="1365" on="1"/>
        <pt x="612" y="1365" on="1"/>
        <pt x="612" y="0" on="1"/>
      </contour>
      <contour>
        <pt x="136" y="68" on="1"/>
        <pt x="544" y="68" on="1"/>
        <pt x="544" y="1297" on="1"/>
        <pt x="136" y="1297" on="1"/>
      </contour>
    </TTGlyph>
    <TTGlyph name="A" xMin="7" yMin="-2" xMax="1444" yMax="1368">
      <contour>
        <pt x="12" y="14" on="1"/>
        <pt x="168" y="395" on="1"/>
        <pt x="295" y="786" on="1"/>
        <pt x="393" y="1092" on="1"/>
        <pt x="307" y="1092" on="1"/>
        <pt x="293" y="1092" on="0"/>
        <pt x="293" y="1106" on="1"/>
        <pt x="295" y="1352" on="1"/>
        <pt x="295" y="1366" on="0"/>
        <pt x="309" y="1366" on="1"/>
        <pt x="508" y="1362" on="1"/>
        <pt x="735" y="1362" on="1"/>
        <pt x="993" y="1362" on="1"/>
        <pt x="1171" y="1368" on="1"/>
        <pt x="1186" y="1368" on="0"/>
        <pt x="1186" y="1354" on="1"/>
        <pt x="1198" y="1112" on="1"/>
        <pt x="1201" y="1100" on="0"/>
        <pt x="1186" y="1096" on="1"/>
        <pt x="1100" y="1092" on="1"/>
        <pt x="1305" y="416" on="1"/>
        <pt x="1393" y="184" on="1"/>
        <pt x="1440" y="16" on="1"/>
        <pt x="1444" y="2" on="0"/>
        <pt x="1430" y="2" on="1"/>
        <pt x="1016" y="-2" on="1"/>
        <pt x="1000" y="-2" on="0"/>
        <pt x="995" y="12" on="1"/>
        <pt x="932" y="215" on="1"/>
        <pt x="927" y="229" on="0"/>
        <pt x="913" y="229" on="1"/>
        <pt x="541" y="231" on="1"/>
        <pt x="525" y="231" on="0"/>
        <pt x="522" y="217" on="1"/>
        <pt x="457" y="14" on="1"/>
        <pt x="452" y="0" on="0"/>
        <pt x="440" y="0" on="1"/>
        <pt x="20" y="0" on="1"/>
        <pt x="7" y="0" on="0"/>
      </contour>
      <contour>
        <pt x="606" y="516" on="1"/>
        <pt x="848" y="516" on="1"/>
        <pt x="745" y="883" on="1"/>
        <pt x="742" y="894" on="0"/>
        <pt x="720" y="894" on="0"/>
        <pt x="717" y="883" on="1"/>
      </contour>
    </TTGlyph>
    <TTGlyph name="Aacute" xMin="7" yMin="-2" xMax="1444" yMax="1786">
      <contour>
        <pt x="12" y="14" on="1"/>
        <pt x="168" y="395" on="1"/>
        <pt x="295" y="786" on="1"/>
        <pt x="393" y="1092" on="1"/>
        <pt x="307" y="1092" on="1"/>
        <pt x="293" y="1092" on="0"/>
        <pt x="293" y="1106" on="1"/>
        <pt x="295" y="1352" on="1"/>
        <pt x="295" y="1366" on="0"/>
        <pt x="309" y="1366" on="1"/>
        <pt x="508" y="1362" on="1"/>
        <pt x="735" y="1362" on="1"/>
        <pt x="993" y="1362" on="1"/>
        <pt x="1171" y="1368" on="1"/>
        <pt x="1186" y="1368" on="0"/>
        <pt x="1186" y="1354" on="1"/>
        <pt x="1198" y="1112" on="1"/>
        <pt x="1201" y="1100" on="0"/>
        <pt x="1186" y="1096" on="1"/>
        <pt x="1100" y="1092" on="1"/>
        <pt x="1305" y="416" on="1"/>
        <pt x="1393" y="184" on="1"/>
        <pt x="1440" y="16" on="1"/>
        <pt x="1444" y="2" on="0"/>
        <pt x="1430" y="2" on="1"/>
        <pt x="1016" y="-2" on="1"/>
        <pt x="1000" y="-2" on="0"/>
        <pt x="995" y="12" on="1"/>
        <pt x="932" y="215" on="1"/>
        <pt x="927" y="229" on="0"/>
        <pt x="913" y="229" on="1"/>
        <pt x="541" y="231" on="1"/>
        <pt x="525" y="231" on="0"/>
        <pt x="522" y="217" on="1"/>
        <pt x="457" y="14" on="1"/>
        <pt x="452" y="0" on="0"/>
        <pt x="440" y="0" on="1"/>
        <pt x="20" y="0" on="1"/>
        <pt x="7" y="0" on="0"/>
      </contour>
      <contour>
        <pt x="541" y="1534" on="1"/>
        <pt x="723" y="1765" on="1"/>
        <pt x="737" y="1784" on="0"/>
        <pt x="766" y="1784" on="1"/>
        <pt x="1102" y="1786" on="1"/>
        <pt x="1117" y="1784" on="0"/>
        <pt x="1117" y="1770" on="0"/>
        <pt x="1110" y="1763" on="1"/>
        <pt x="836" y="1528" on="1"/>
        <pt x="816" y="1511" on="0"/>
        <pt x="795" y="1511" on="1"/>
        <pt x="549" y="1516" on="1"/>
        <pt x="529" y="1516" on="0"/>
      </contour>
      <contour>
        <pt x="606" y="516" on="1"/>
        <pt x="848" y="516" on="1"/>
        <pt x="745" y="883" on="1"/>
        <pt x="742" y="894" on="0"/>
        <pt x="720" y="894" on="0"/>
        <pt x="717" y="883" on="1"/>
      </contour>
    </TTGlyph>
    <TTGlyph name="Acircumflex" xMin="7" yMin="-2" xMax="1444" yMax="1788">
      <contour>
        <pt x="12" y="14" on="1"/>
        <pt x="168" y="395" on="1"/>
        <pt x="295" y="786" on="1"/>
        <pt x="393" y="1092" on="1"/>
        <pt x="307" y="1092" on="1"/>
        <pt x="293" y="1092" on="0"/>
        <pt x="293" y="1106" on="1"/>
        <pt x="295" y="1352" on="1"/>
        <pt x="295" y="1366" on="0"/>
        <pt x="309" y="1366" on="1"/>
        <pt x="508" y="1362" on="1"/>
        <pt x="735" y="1362" on="1"/>
        <pt x="993" y="1362" on="1"/>
        <pt x="1171" y="1368" on="1"/>
        <pt x="1186" y="1368" on="0"/>
        <pt x="1186" y="1354" on="1"/>
        <pt x="1198" y="1112" on="1"/>
        <pt x="1201" y="1100" on="0"/>
        <pt x="1186" y="1096" on="1"/>
        <pt x="1100" y="1092" on="1"/>
        <pt x="1305" y="416" on="1"/>
        <pt x="1393" y="184" on="1"/>
        <pt x="1440" y="16" on="1"/>
        <pt x="1444" y="2" on="0"/>
        <pt x="1430" y="2" on="1"/>
        <pt x="1016" y="-2" on="1"/>
        <pt x="1000" y="-2" on="0"/>
        <pt x="995" y="12" on="1"/>
        <pt x="932" y="215" on="1"/>
        <pt x="927" y="229" on="0"/>
        <pt x="913" y="229" on="1"/>
        <pt x="541" y="231" on="1"/>
        <pt x="525" y="231" on="0"/>
        <pt x="522" y="217" on="1"/>
        <pt x="457" y="14" on="1"/>
        <pt x="452" y="0" on="0"/>
        <pt x="440" y="0" on="1"/>
        <pt x="20" y="0" on="1"/>
        <pt x="7" y="0" on="0"/>
      </contour>
      <contour>
        <pt x="321" y="1513" on="0"/>
        <pt x="317" y="1524" on="0"/>
        <pt x="324" y="1532" on="1"/>
        <pt x="543" y="1765" on="1"/>
        <pt x="562" y="1784" on="0"/>
        <pt x="586" y="1784" on="1"/>
        <pt x="692" y="1788" on="1"/>
        <pt x="866" y="1786" on="1"/>
        <pt x="890" y="1786" on="0"/>
        <pt x="909" y="1767" on="1"/>
        <pt x="1130" y="1532" on="1"/>
        <pt x="1137" y="1524" on="0"/>
        <pt x="1133" y="1513" on="0"/>
        <pt x="1122" y="1513" on="1"/>
        <pt x="899" y="1509" on="1"/>
        <pt x="878" y="1509" on="0"/>
        <pt x="858" y="1526" on="1"/>
        <pt x="725" y="1634" on="1"/>
        <pt x="596" y="1526" on="1"/>
        <pt x="576" y="1509" on="0"/>
        <pt x="555" y="1509" on="1"/>
        <pt x="332" y="1513" on="1"/>
      </contour>
      <contour>
        <pt x="606" y="516" on="1"/>
        <pt x="848" y="516" on="1"/>
        <pt x="745" y="883" on="1"/>
        <pt x="742" y="894" on="0"/>
        <pt x="720" y="894" on="0"/>
        <pt x="717" y="883" on="1"/>
      </contour>
    </TTGlyph>
    <TTGlyph name="Adieresis" xMin="7" yMin="-2" xMax="1444" yMax="1776">
      <contour>
        <pt x="12" y="14" on="1"/>
        <pt x="168" y="395" on="1"/>
        <pt x="295" y="786" on="1"/>
        <pt x="393" y="1092" on="1"/>
        <pt x="307" y="1092" on="1"/>
        <pt x="293" y="1092" on="0"/>
        <pt x="293" y="1106" on="1"/>
        <pt x="295" y="1352" on="1"/>
        <pt x="295" y="1366" on="0"/>
        <pt x="309" y="1366" on="1"/>
        <pt x="508" y="1362" on="1"/>
        <pt x="735" y="1362" on="1"/>
        <pt x="993" y="1362" on="1"/>
        <pt x="1171" y="1368" on="1"/>
        <pt x="1186" y="1368" on="0"/>
        <pt x="1186" y="1354" on="1"/>
        <pt x="1198" y="1112" on="1"/>
        <pt x="1201" y="1100" on="0"/>
        <pt x="1186" y="1096" on="1"/>
        <pt x="1100" y="1092" on="1"/>
        <pt x="1305" y="416" on="1"/>
        <pt x="1393" y="184" on="1"/>
        <pt x="1440" y="16" on="1"/>
        <pt x="1444" y="2" on="0"/>
        <pt x="1430" y="2" on="1"/>
        <pt x="1016" y="-2" on="1"/>
        <pt x="1000" y="-2" on="0"/>
        <pt x="995" y="12" on="1"/>
        <pt x="932" y="215" on="1"/>
        <pt x="927" y="229" on="0"/>
        <pt x="913" y="229" on="1"/>
        <pt x="541" y="231" on="1"/>
        <pt x="525" y="231" on="0"/>
        <pt x="522" y="217" on="1"/>
        <pt x="457" y="14" on="1"/>
        <pt x="452" y="0" on="0"/>
        <pt x="440" y="0" on="1"/>
        <pt x="20" y="0" on="1"/>
        <pt x="7" y="0" on="0"/>
      </contour>
      <contour>
        <pt x="383" y="1564" on="0"/>
        <pt x="383" y="1688" on="0"/>
        <pt x="471" y="1776" on="0"/>
        <pt x="532" y="1776" on="1"/>
        <pt x="594" y="1776" on="0"/>
        <pt x="682" y="1688" on="0"/>
        <pt x="682" y="1626" on="1"/>
        <pt x="682" y="1565" on="0"/>
        <pt x="594" y="1477" on="0"/>
        <pt x="470" y="1477" on="0"/>
      </contour>
      <contour>
        <pt x="606" y="516" on="1"/>
        <pt x="848" y="516" on="1"/>
        <pt x="745" y="883" on="1"/>
        <pt x="742" y="894" on="0"/>
        <pt x="720" y="894" on="0"/>
        <pt x="717" y="883" on="1"/>
      </contour>
      <contour>
        <pt x="795" y="1564" on="0"/>
        <pt x="795" y="1688" on="0"/>
        <pt x="883" y="1776" on="0"/>
        <pt x="944" y="1776" on="1"/>
        <pt x="1006" y="1776" on="0"/>
        <pt x="1094" y="1688" on="0"/>
        <pt x="1094" y="1626" on="1"/>
        <pt x="1094" y="1565" on="0"/>
        <pt x="1006" y="1477" on="0"/>
        <pt x="882" y="1477" on="0"/>
      </contour>
    </TTGlyph>
    <TTGlyph name="Agrave" xMin="7" yMin="-2" xMax="1444" yMax="1786">
      <contour>
        <pt x="12" y="14" on="1"/>
        <pt x="168" y="395" on="1"/>
        <pt x="295" y="786" on="1"/>
        <pt x="393" y="1092" on="1"/>
        <pt x="307" y="1092" on="1"/>
        <pt x="293" y="1092" on="0"/>
        <pt x="293" y="1106" on="1"/>
        <pt x="295" y="1352" on="1"/>
        <pt x="295" y="1366" on="0"/>
        <pt x="309" y="1366" on="1"/>
        <pt x="508" y="1362" on="1"/>
        <pt x="735" y="1362" on="1"/>
        <pt x="993" y="1362" on="1"/>
        <pt x="1171" y="1368" on="1"/>
        <pt x="1186" y="1368" on="0"/>
        <pt x="1186" y="1354" on="1"/>
        <pt x="1198" y="1112" on="1"/>
        <pt x="1201" y="1100" on="0"/>
        <pt x="1186" y="1096" on="1"/>
        <pt x="1100" y="1092" on="1"/>
        <pt x="1305" y="416" on="1"/>
        <pt x="1393" y="184" on="1"/>
        <pt x="1440" y="16" on="1"/>
        <pt x="1444" y="2" on="0"/>
        <pt x="1430" y="2" on="1"/>
        <pt x="1016" y="-2" on="1"/>
        <pt x="1000" y="-2" on="0"/>
        <pt x="995" y="12" on="1"/>
        <pt x="932" y="215" on="1"/>
        <pt x="927" y="229" on="0"/>
        <pt x="913" y="229" on="1"/>
        <pt x="541" y="231" on="1"/>
        <pt x="525" y="231" on="0"/>
        <pt x="522" y="217" on="1"/>
        <pt x="457" y="14" on="1"/>
        <pt x="452" y="0" on="0"/>
        <pt x="440" y="0" on="1"/>
        <pt x="20" y="0" on="1"/>
        <pt x="7" y="0" on="0"/>
      </contour>
      <contour>
        <pt x="327" y="1766" on="0"/>
        <pt x="327" y="1780" on="0"/>
        <pt x="342" y="1782" on="1"/>
        <pt x="678" y="1786" on="1"/>
        <pt x="707" y="1786" on="0"/>
        <pt x="721" y="1767" on="1"/>
        <pt x="903" y="1534" on="1"/>
        <pt x="915" y="1516" on="0"/>
        <pt x="895" y="1516" on="1"/>
        <pt x="649" y="1511" on="1"/>
        <pt x="628" y="1511" on="0"/>
        <pt x="608" y="1528" on="1"/>
        <pt x="334" y="1759" on="1"/>
      </contour>
      <contour>
        <pt x="606" y="516" on="1"/>
        <pt x="848" y="516" on="1"/>
        <pt x="745" y="883" on="1"/>
        <pt x="742" y="894" on="0"/>
        <pt x="720" y="894" on="0"/>
        <pt x="717" y="883" on="1"/>
      </contour>
    </TTGlyph>
    <TTGlyph name="B" xMin="88" yMin="0" xMax="1417" yMax="1368">
      <contour>
        <pt x="88" y="1116" on="1"/>
        <pt x="94" y="1354" on="1"/>
        <pt x="94" y="1368" on="0"/>
        <pt x="109" y="1368" on="1"/>
        <pt x="272" y="1366" on="1"/>
        <pt x="428" y="1364" on="1"/>
        <pt x="858" y="1364" on="1"/>
        <pt x="991" y="1364" on="0"/>
        <pt x="1161" y="1322" on="0"/>
        <pt x="1229" y="1272" on="1"/>
        <pt x="1279" y="1236" on="0"/>
        <pt x="1344" y="1117" on="0"/>
        <pt x="1348" y="1047" on="1"/>
        <pt x="1349" y="1034" on="0"/>
        <pt x="1349" y="1022" on="1"/>
        <pt x="1349" y="971" on="0"/>
        <pt x="1333" y="922" on="1"/>
        <pt x="1313" y="861" on="0"/>
        <pt x="1270" y="821" on="1"/>
        <pt x="1207" y="758" on="0"/>
        <pt x="1075" y="727" on="1"/>
        <pt x="1243" y="701" on="0"/>
        <pt x="1417" y="526" on="0"/>
        <pt x="1417" y="385" on="1"/>
        <pt x="1417" y="311" on="0"/>
        <pt x="1362" y="172" on="0"/>
        <pt x="1313" y="125" on="1"/>
        <pt x="1188" y="0" on="0"/>
        <pt x="899" y="0" on="1"/>
        <pt x="233" y="0" on="1"/>
        <pt x="219" y="0" on="0"/>
        <pt x="219" y="14" on="1"/>
        <pt x="219" y="756" on="1"/>
        <pt x="218" y="809" on="0"/>
        <pt x="214" y="924" on="1"/>
        <pt x="210" y="1018" on="0"/>
        <pt x="211" y="1075" on="1"/>
        <pt x="211" y="1088" on="0"/>
        <pt x="211" y="1098" on="1"/>
        <pt x="102" y="1102" on="1"/>
        <pt x="88" y="1102" on="0"/>
      </contour>
      <contour>
        <pt x="633" y="551" on="1"/>
        <pt x="647" y="303" on="1"/>
        <pt x="705" y="303" on="1"/>
        <pt x="811" y="303" on="0"/>
        <pt x="901" y="360" on="0"/>
        <pt x="901" y="426" on="1"/>
        <pt x="901" y="463" on="0"/>
        <pt x="867" y="520" on="0"/>
        <pt x="838" y="532" on="1"/>
        <pt x="796" y="551" on="0"/>
        <pt x="705" y="551" on="1"/>
      </contour>
      <contour>
        <pt x="633" y="1067" on="1"/>
        <pt x="641" y="829" on="1"/>
        <pt x="705" y="823" on="1"/>
        <pt x="797" y="823" on="0"/>
        <pt x="877" y="880" on="0"/>
        <pt x="877" y="946" on="1"/>
        <pt x="877" y="1009" on="0"/>
        <pt x="795" y="1067" on="0"/>
        <pt x="705" y="1067" on="1"/>
      </contour>
    </TTGlyph>
    <TTGlyph name="C" xMin="68" yMin="-31" xMax="1135" yMax="1395">
      <contour>
        <pt x="68" y="682" on="1"/>
        <pt x="68" y="884" on="0"/>
        <pt x="236" y="1206" on="0"/>
        <pt x="556" y="1395" on="0"/>
        <pt x="764" y="1395" on="1"/>
        <pt x="932" y="1395" on="0"/>
        <pt x="1112" y="1327" on="1"/>
        <pt x="1126" y="1324" on="0"/>
        <pt x="1126" y="1309" on="1"/>
        <pt x="1112" y="969" on="1"/>
        <pt x="1112" y="950" on="0"/>
        <pt x="1094" y="956" on="1"/>
        <pt x="999" y="1001" on="0"/>
        <pt x="834" y="1001" on="1"/>
        <pt x="699" y="1001" on="0"/>
        <pt x="510" y="820" on="0"/>
        <pt x="510" y="694" on="1"/>
        <pt x="510" y="564" on="0"/>
        <pt x="716" y="377" on="0"/>
        <pt x="868" y="377" on="1"/>
        <pt x="937" y="377" on="0"/>
        <pt x="1110" y="434" on="1"/>
        <pt x="1123" y="438" on="0"/>
        <pt x="1135" y="430" on="0"/>
        <pt x="1133" y="422" on="1"/>
        <pt x="1128" y="372" on="0"/>
        <pt x="1128" y="301" on="0"/>
        <pt x="1128" y="297" on="1"/>
        <pt x="1128" y="294" on="0"/>
        <pt x="1127" y="278" on="1"/>
        <pt x="1126" y="260" on="0"/>
        <pt x="1126" y="240" on="1"/>
        <pt x="1126" y="233" on="0"/>
        <pt x="1125" y="224" on="1"/>
        <pt x="1125" y="204" on="0"/>
        <pt x="1126" y="174" on="1"/>
        <pt x="1127" y="128" on="0"/>
        <pt x="1130" y="72" on="1"/>
        <pt x="1131" y="66" on="0"/>
        <pt x="1122" y="55" on="0"/>
        <pt x="1116" y="53" on="1"/>
        <pt x="880" y="-31" on="0"/>
        <pt x="768" y="-31" on="1"/>
        <pt x="561" y="-31" on="0"/>
        <pt x="239" y="160" on="0"/>
        <pt x="68" y="484" on="0"/>
      </contour>
    </TTGlyph>
    <TTGlyph name="Ccedilla" xMin="68" yMin="-379" xMax="1135" yMax="1395">
      <contour>
        <pt x="68" y="682" on="1"/>
        <pt x="68" y="884" on="0"/>
        <pt x="236" y="1206" on="0"/>
        <pt x="556" y="1395" on="0"/>
        <pt x="764" y="1395" on="1"/>
        <pt x="932" y="1395" on="0"/>
        <pt x="1112" y="1327" on="1"/>
        <pt x="1126" y="1324" on="0"/>
        <pt x="1126" y="1309" on="1"/>
        <pt x="1112" y="969" on="1"/>
        <pt x="1112" y="950" on="0"/>
        <pt x="1094" y="956" on="1"/>
        <pt x="999" y="1001" on="0"/>
        <pt x="834" y="1001" on="1"/>
        <pt x="699" y="1001" on="0"/>
        <pt x="510" y="820" on="0"/>
        <pt x="510" y="694" on="1"/>
        <pt x="510" y="564" on="0"/>
        <pt x="716" y="377" on="0"/>
        <pt x="868" y="377" on="1"/>
        <pt x="937" y="377" on="0"/>
        <pt x="1110" y="434" on="1"/>
        <pt x="1123" y="438" on="0"/>
        <pt x="1135" y="430" on="0"/>
        <pt x="1133" y="422" on="1"/>
        <pt x="1128" y="372" on="0"/>
        <pt x="1128" y="301" on="0"/>
        <pt x="1128" y="297" on="1"/>
        <pt x="1128" y="294" on="0"/>
        <pt x="1126" y="261" on="0"/>
        <pt x="1125" y="220" on="0"/>
        <pt x="1127" y="129" on="0"/>
        <pt x="1130" y="72" on="1"/>
        <pt x="1131" y="66" on="0"/>
        <pt x="1122" y="55" on="0"/>
        <pt x="1116" y="53" on="1"/>
        <pt x="900" y="-23" on="0"/>
        <pt x="799" y="-29" on="1"/>
        <pt x="756" y="-94" on="1"/>
        <pt x="911" y="-94" on="0"/>
        <pt x="911" y="-213" on="1"/>
        <pt x="911" y="-295" on="0"/>
        <pt x="788" y="-379" on="0"/>
        <pt x="684" y="-379" on="1"/>
        <pt x="666" y="-379" on="0"/>
        <pt x="602" y="-370" on="0"/>
        <pt x="580" y="-366" on="1"/>
        <pt x="557" y="-362" on="1"/>
        <pt x="547" y="-360" on="0"/>
        <pt x="541" y="-348" on="1"/>
        <pt x="502" y="-238" on="1"/>
        <pt x="499" y="-231" on="0"/>
        <pt x="510" y="-231" on="0"/>
        <pt x="516" y="-233" on="1"/>
        <pt x="525" y="-235" on="0"/>
        <pt x="554" y="-241" on="0"/>
        <pt x="616" y="-251" on="0"/>
        <pt x="631" y="-250" on="1"/>
        <pt x="658" y="-249" on="0"/>
        <pt x="690" y="-225" on="0"/>
        <pt x="688" y="-209" on="1"/>
        <pt x="686" y="-184" on="0"/>
        <pt x="630" y="-156" on="0"/>
        <pt x="565" y="-152" on="1"/>
        <pt x="556" y="-152" on="0"/>
        <pt x="563" y="-139" on="1"/>
        <pt x="623" y="-18" on="1"/>
        <pt x="371" y="29" on="0"/>
        <pt x="68" y="417" on="0"/>
      </contour>
    </TTGlyph>
    <TTGlyph name="D" xMin="88" yMin="-6" xMax="1417" yMax="1372">
      <contour>
        <pt x="88" y="1122" on="1"/>
        <pt x="98" y="1358" on="1"/>
        <pt x="98" y="1372" on="0"/>
        <pt x="113" y="1372" on="1"/>
        <pt x="311" y="1366" on="1"/>
        <pt x="457" y="1364" on="1"/>
        <pt x="725" y="1364" on="1"/>
        <pt x="903" y="1364" on="0"/>
        <pt x="1127" y="1302" on="0"/>
        <pt x="1221" y="1221" on="1"/>
        <pt x="1315" y="1143" on="0"/>
        <pt x="1417" y="835" on="0"/>
        <pt x="1417" y="686" on="1"/>
        <pt x="1417" y="559" on="0"/>
        <pt x="1340" y="280" on="0"/>
        <pt x="1270" y="201" on="1"/>
        <pt x="1190" y="109" on="0"/>
        <pt x="1079" y="59" on="1"/>
        <pt x="993" y="22" on="0"/>
        <pt x="912" y="6" on="1"/>
        <pt x="853" y="-6" on="0"/>
        <pt x="769" y="-6" on="1"/>
        <pt x="737" y="-6" on="0"/>
        <pt x="702" y="-4" on="1"/>
        <pt x="590" y="0" on="1"/>
        <pt x="227" y="0" on="1"/>
        <pt x="213" y="0" on="0"/>
        <pt x="213" y="14" on="1"/>
        <pt x="227" y="391" on="1"/>
        <pt x="213" y="774" on="1"/>
        <pt x="217" y="1104" on="1"/>
        <pt x="102" y="1108" on="1"/>
        <pt x="88" y="1108" on="0"/>
      </contour>
      <contour>
        <pt x="629" y="674" on="1"/>
        <pt x="641" y="338" on="1"/>
        <pt x="641" y="334" on="0"/>
        <pt x="650" y="324" on="0"/>
        <pt x="655" y="324" on="1"/>
        <pt x="741" y="319" on="1"/>
        <pt x="745" y="319" on="0"/>
        <pt x="750" y="318" on="1"/>
        <pt x="810" y="318" on="0"/>
        <pt x="859" y="370" on="1"/>
        <pt x="912" y="425" on="0"/>
        <pt x="965" y="591" on="0"/>
        <pt x="965" y="765" on="0"/>
        <pt x="910" y="932" on="0"/>
        <pt x="858" y="988" on="1"/>
        <pt x="810" y="1039" on="0"/>
        <pt x="755" y="1038" on="1"/>
        <pt x="750" y="1038" on="0"/>
        <pt x="745" y="1038" on="1"/>
        <pt x="651" y="1032" on="1"/>
        <pt x="637" y="1032" on="0"/>
        <pt x="637" y="1018" on="1"/>
      </contour>
    </TTGlyph>
    <TTGlyph name="E" xMin="88" yMin="-2" xMax="1240" yMax="1370">
      <contour>
        <pt x="88" y="1118" on="1"/>
        <pt x="94" y="1356" on="1"/>
        <pt x="97" y="1370" on="0"/>
        <pt x="109" y="1370" on="1"/>
        <pt x="328" y="1366" on="1"/>
        <pt x="483" y="1362" on="1"/>
        <pt x="1223" y="1362" on="1"/>
        <pt x="1240" y="1362" on="0"/>
        <pt x="1235" y="1348" on="1"/>
        <pt x="1186" y="1042" on="1"/>
        <pt x="1183" y="1028" on="0"/>
        <pt x="1169" y="1028" on="1"/>
        <pt x="662" y="1028" on="1"/>
        <pt x="662" y="844" on="1"/>
        <pt x="1124" y="854" on="1"/>
        <pt x="1132" y="854" on="0"/>
        <pt x="1140" y="847" on="0"/>
        <pt x="1139" y="840" on="1"/>
        <pt x="1120" y="524" on="1"/>
        <pt x="1120" y="510" on="0"/>
        <pt x="1104" y="510" on="1"/>
        <pt x="680" y="510" on="1"/>
        <pt x="680" y="322" on="1"/>
        <pt x="1210" y="322" on="1"/>
        <pt x="1226" y="322" on="0"/>
        <pt x="1223" y="307" on="1"/>
        <pt x="1176" y="12" on="1"/>
        <pt x="1176" y="-2" on="0"/>
        <pt x="1161" y="-2" on="1"/>
        <pt x="862" y="6" on="1"/>
        <pt x="233" y="-2" on="1"/>
        <pt x="219" y="-2" on="0"/>
        <pt x="217" y="12" on="1"/>
        <pt x="213" y="200" on="0"/>
        <pt x="213" y="352" on="1"/>
        <pt x="213" y="441" on="0"/>
        <pt x="217" y="654" on="1"/>
        <pt x="220" y="796" on="0"/>
        <pt x="220" y="873" on="1"/>
        <pt x="220" y="912" on="0"/>
        <pt x="219" y="934" on="1"/>
        <pt x="219" y="968" on="0"/>
        <pt x="215" y="1100" on="1"/>
        <pt x="104" y="1102" on="1"/>
        <pt x="88" y="1102" on="0"/>
      </contour>
    </TTGlyph>
    <TTGlyph name="Eacute" xMin="88" yMin="-2" xMax="1240" yMax="1786">
      <contour>
        <pt x="88" y="1118" on="1"/>
        <pt x="94" y="1356" on="1"/>
        <pt x="97" y="1370" on="0"/>
        <pt x="109" y="1370" on="1"/>
        <pt x="328" y="1366" on="1"/>
        <pt x="483" y="1362" on="1"/>
        <pt x="1223" y="1362" on="1"/>
        <pt x="1240" y="1362" on="0"/>
        <pt x="1235" y="1348" on="1"/>
        <pt x="1186" y="1042" on="1"/>
        <pt x="1183" y="1028" on="0"/>
        <pt x="1169" y="1028" on="1"/>
        <pt x="662" y="1028" on="1"/>
        <pt x="662" y="844" on="1"/>
        <pt x="1124" y="854" on="1"/>
        <pt x="1132" y="854" on="0"/>
        <pt x="1140" y="847" on="0"/>
        <pt x="1139" y="840" on="1"/>
        <pt x="1120" y="524" on="1"/>
        <pt x="1120" y="510" on="0"/>
        <pt x="1104" y="510" on="1"/>
        <pt x="680" y="510" on="1"/>
        <pt x="680" y="322" on="1"/>
        <pt x="1210" y="322" on="1"/>
        <pt x="1226" y="322" on="0"/>
        <pt x="1223" y="307" on="1"/>
        <pt x="1176" y="12" on="1"/>
        <pt x="1176" y="-2" on="0"/>
        <pt x="1161" y="-2" on="1"/>
        <pt x="862" y="6" on="1"/>
        <pt x="233" y="-2" on="1"/>
        <pt x="219" y="-2" on="0"/>
        <pt x="217" y="12" on="1"/>
        <pt x="213" y="200" on="0"/>
        <pt x="213" y="352" on="1"/>
        <pt x="213" y="441" on="0"/>
        <pt x="221" y="867" on="0"/>
        <pt x="219" y="934" on="1"/>
        <pt x="219" y="968" on="0"/>
        <pt x="215" y="1100" on="1"/>
        <pt x="104" y="1102" on="1"/>
        <pt x="88" y="1102" on="0"/>
      </contour>
      <contour>
        <pt x="522" y="1534" on="1"/>
        <pt x="705" y="1765" on="1"/>
        <pt x="719" y="1784" on="0"/>
        <pt x="748" y="1784" on="1"/>
        <pt x="1083" y="1786" on="1"/>
        <pt x="1098" y="1786" on="0"/>
        <pt x="1099" y="1768" on="0"/>
        <pt x="1092" y="1763" on="1"/>
        <pt x="817" y="1528" on="1"/>
        <pt x="797" y="1511" on="0"/>
        <pt x="776" y="1511" on="1"/>
        <pt x="530" y="1516" on="1"/>
        <pt x="510" y="1516" on="0"/>
      </contour>
    </TTGlyph>
    <TTGlyph name="Ecircumflex" xMin="88" yMin="-2" xMax="1240" yMax="1788">
      <contour>
        <pt x="88" y="1118" on="1"/>
        <pt x="94" y="1356" on="1"/>
        <pt x="97" y="1370" on="0"/>
        <pt x="109" y="1370" on="1"/>
        <pt x="328" y="1366" on="1"/>
        <pt x="483" y="1362" on="1"/>
        <pt x="1223" y="1362" on="1"/>
        <pt x="1240" y="1362" on="0"/>
        <pt x="1235" y="1348" on="1"/>
        <pt x="1186" y="1042" on="1"/>
        <pt x="1183" y="1028" on="0"/>
        <pt x="1169" y="1028" on="1"/>
        <pt x="662" y="1028" on="1"/>
        <pt x="662" y="844" on="1"/>
        <pt x="1124" y="854" on="1"/>
        <pt x="1132" y="854" on="0"/>
        <pt x="1140" y="847" on="0"/>
        <pt x="1139" y="840" on="1"/>
        <pt x="1120" y="524" on="1"/>
        <pt x="1120" y="510" on="0"/>
        <pt x="1104" y="510" on="1"/>
        <pt x="680" y="510" on="1"/>
        <pt x="680" y="322" on="1"/>
        <pt x="1210" y="322" on="1"/>
        <pt x="1226" y="322" on="0"/>
        <pt x="1223" y="307" on="1"/>
        <pt x="1176" y="12" on="1"/>
        <pt x="1176" y="-2" on="0"/>
        <pt x="1161" y="-2" on="1"/>
        <pt x="862" y="6" on="1"/>
        <pt x="233" y="-2" on="1"/>
        <pt x="219" y="-2" on="0"/>
        <pt x="217" y="12" on="1"/>
        <pt x="213" y="200" on="0"/>
        <pt x="213" y="352" on="1"/>
        <pt x="213" y="441" on="0"/>
        <pt x="221" y="867" on="0"/>
        <pt x="219" y="934" on="1"/>
        <pt x="219" y="968" on="0"/>
        <pt x="215" y="1100" on="1"/>
        <pt x="104" y="1102" on="1"/>
        <pt x="88" y="1102" on="0"/>
      </contour>
      <contour>
        <pt x="282" y="1513" on="0"/>
        <pt x="278" y="1524" on="0"/>
        <pt x="285" y="1532" on="1"/>
        <pt x="504" y="1765" on="1"/>
        <pt x="523" y="1784" on="0"/>
        <pt x="547" y="1784" on="1"/>
        <pt x="653" y="1788" on="1"/>
        <pt x="827" y="1786" on="1"/>
        <pt x="851" y="1786" on="0"/>
        <pt x="870" y="1767" on="1"/>
        <pt x="1092" y="1532" on="1"/>
        <pt x="1099" y="1524" on="0"/>
        <pt x="1094" y="1513" on="0"/>
        <pt x="1083" y="1513" on="1"/>
        <pt x="860" y="1509" on="1"/>
        <pt x="839" y="1509" on="0"/>
        <pt x="819" y="1526" on="1"/>
        <pt x="686" y="1634" on="1"/>
        <pt x="557" y="1526" on="1"/>
        <pt x="537" y="1509" on="0"/>
        <pt x="516" y="1509" on="1"/>
        <pt x="293" y="1513" on="1"/>
      </contour>
    </TTGlyph>
    <TTGlyph name="Edieresis" xMin="88" yMin="-2" xMax="1240" yMax="1776">
      <contour>
        <pt x="88" y="1118" on="1"/>
        <pt x="94" y="1356" on="1"/>
        <pt x="97" y="1370" on="0"/>
        <pt x="109" y="1370" on="1"/>
        <pt x="328" y="1366" on="1"/>
        <pt x="483" y="1362" on="1"/>
        <pt x="1223" y="1362" on="1"/>
        <pt x="1240" y="1362" on="0"/>
        <pt x="1235" y="1348" on="1"/>
        <pt x="1186" y="1042" on="1"/>
        <pt x="1183" y="1028" on="0"/>
        <pt x="1169" y="1028" on="1"/>
        <pt x="662" y="1028" on="1"/>
        <pt x="662" y="844" on="1"/>
        <pt x="1124" y="854" on="1"/>
        <pt x="1132" y="854" on="0"/>
        <pt x="1140" y="847" on="0"/>
        <pt x="1139" y="840" on="1"/>
        <pt x="1120" y="524" on="1"/>
        <pt x="1120" y="510" on="0"/>
        <pt x="1104" y="510" on="1"/>
        <pt x="680" y="510" on="1"/>
        <pt x="680" y="322" on="1"/>
        <pt x="1210" y="322" on="1"/>
        <pt x="1226" y="322" on="0"/>
        <pt x="1223" y="307" on="1"/>
        <pt x="1176" y="12" on="1"/>
        <pt x="1176" y="-2" on="0"/>
        <pt x="1161" y="-2" on="1"/>
        <pt x="862" y="6" on="1"/>
        <pt x="233" y="-2" on="1"/>
        <pt x="219" y="-2" on="0"/>
        <pt x="217" y="12" on="1"/>
        <pt x="213" y="200" on="0"/>
        <pt x="213" y="352" on="1"/>
        <pt x="213" y="441" on="0"/>
        <pt x="221" y="867" on="0"/>
        <pt x="219" y="934" on="1"/>
        <pt x="219" y="968" on="0"/>
        <pt x="215" y="1100" on="1"/>
        <pt x="104" y="1102" on="1"/>
        <pt x="88" y="1102" on="0"/>
      </contour>
      <contour>
        <pt x="330" y="1564" on="0"/>
        <pt x="330" y="1688" on="0"/>
        <pt x="418" y="1776" on="0"/>
        <pt x="540" y="1776" on="0"/>
        <pt x="629" y="1688" on="0"/>
        <pt x="629" y="1626" on="1"/>
        <pt x="629" y="1565" on="0"/>
        <pt x="541" y="1477" on="0"/>
        <pt x="479" y="1477" on="1"/>
        <pt x="418" y="1477" on="0"/>
      </contour>
      <contour>
        <pt x="741" y="1626" on="1"/>
        <pt x="741" y="1688" on="0"/>
        <pt x="830" y="1776" on="0"/>
        <pt x="952" y="1776" on="0"/>
        <pt x="1040" y="1688" on="0"/>
        <pt x="1040" y="1564" on="0"/>
        <pt x="952" y="1477" on="0"/>
        <pt x="891" y="1477" on="1"/>
        <pt x="829" y="1477" on="0"/>
        <pt x="741" y="1565" on="0"/>
      </contour>
    </TTGlyph>
    <TTGlyph name="Egrave" xMin="88" yMin="-2" xMax="1240" yMax="1786">
      <contour>
        <pt x="88" y="1118" on="1"/>
        <pt x="94" y="1356" on="1"/>
        <pt x="97" y="1370" on="0"/>
        <pt x="109" y="1370" on="1"/>
        <pt x="328" y="1366" on="1"/>
        <pt x="483" y="1362" on="1"/>
        <pt x="1223" y="1362" on="1"/>
        <pt x="1240" y="1362" on="0"/>
        <pt x="1235" y="1348" on="1"/>
        <pt x="1186" y="1042" on="1"/>
        <pt x="1183" y="1028" on="0"/>
        <pt x="1169" y="1028" on="1"/>
        <pt x="662" y="1028" on="1"/>
        <pt x="662" y="844" on="1"/>
        <pt x="1124" y="854" on="1"/>
        <pt x="1132" y="854" on="0"/>
        <pt x="1140" y="847" on="0"/>
        <pt x="1139" y="840" on="1"/>
        <pt x="1120" y="524" on="1"/>
        <pt x="1120" y="510" on="0"/>
        <pt x="1104" y="510" on="1"/>
        <pt x="680" y="510" on="1"/>
        <pt x="680" y="322" on="1"/>
        <pt x="1210" y="322" on="1"/>
        <pt x="1226" y="322" on="0"/>
        <pt x="1223" y="307" on="1"/>
        <pt x="1176" y="12" on="1"/>
        <pt x="1176" y="-2" on="0"/>
        <pt x="1161" y="-2" on="1"/>
        <pt x="862" y="6" on="1"/>
        <pt x="233" y="-2" on="1"/>
        <pt x="219" y="-2" on="0"/>
        <pt x="217" y="12" on="1"/>
        <pt x="213" y="200" on="0"/>
        <pt x="213" y="352" on="1"/>
        <pt x="213" y="441" on="0"/>
        <pt x="221" y="867" on="0"/>
        <pt x="219" y="934" on="1"/>
        <pt x="219" y="968" on="0"/>
        <pt x="215" y="1100" on="1"/>
        <pt x="104" y="1102" on="1"/>
        <pt x="88" y="1102" on="0"/>
      </contour>
      <contour>
        <pt x="292" y="1766" on="0"/>
        <pt x="292" y="1780" on="0"/>
        <pt x="307" y="1782" on="1"/>
        <pt x="643" y="1786" on="1"/>
        <pt x="672" y="1786" on="0"/>
        <pt x="686" y="1767" on="1"/>
        <pt x="868" y="1534" on="1"/>
        <pt x="880" y="1516" on="0"/>
        <pt x="860" y="1516" on="1"/>
        <pt x="614" y="1511" on="1"/>
        <pt x="593" y="1511" on="0"/>
        <pt x="573" y="1528" on="1"/>
        <pt x="299" y="1759" on="1"/>
      </contour>
    </TTGlyph>
    <TTGlyph name="Euro" xMin="94" yMin="-31" xMax="1232" yMax="1395">
      <contour>
        <pt x="94" y="672" on="1"/>
        <pt x="94" y="827" on="0"/>
        <pt x="192" y="1091" on="0"/>
        <pt x="376" y="1285" on="0"/>
        <pt x="656" y="1395" on="0"/>
        <pt x="829" y="1395" on="1"/>
        <pt x="1020" y="1395" on="0"/>
        <pt x="1214" y="1315" on="1"/>
        <pt x="1232" y="1306" on="0"/>
        <pt x="1229" y="1296" on="1"/>
        <pt x="1155" y="1001" on="1"/>
        <pt x="1149" y="980" on="0"/>
        <pt x="1122" y="993" on="1"/>
        <pt x="1059" y="1024" on="0"/>
        <pt x="958" y="1049" on="0"/>
        <pt x="889" y="1049" on="1"/>
        <pt x="748" y="1049" on="0"/>
        <pt x="545" y="926" on="0"/>
        <pt x="508" y="803" on="1"/>
        <pt x="1071" y="825" on="1"/>
        <pt x="1074" y="825" on="0"/>
        <pt x="1081" y="818" on="0"/>
        <pt x="1083" y="814" on="1"/>
        <pt x="1085" y="811" on="1"/>
        <pt x="1049" y="549" on="1"/>
        <pt x="1046" y="535" on="0"/>
        <pt x="1032" y="535" on="1"/>
        <pt x="520" y="535" on="1"/>
        <pt x="548" y="426" on="0"/>
        <pt x="699" y="291" on="0"/>
        <pt x="801" y="291" on="1"/>
        <pt x="906" y="291" on="0"/>
        <pt x="1125" y="347" on="0"/>
        <pt x="1184" y="375" on="1"/>
        <pt x="1212" y="382" on="0"/>
        <pt x="1212" y="356" on="1"/>
        <pt x="1212" y="353" on="0"/>
        <pt x="1210" y="132" on="0"/>
        <pt x="1210" y="106" on="1"/>
        <pt x="1210" y="92" on="0"/>
        <pt x="1208" y="76" on="0"/>
        <pt x="1195" y="59" on="0"/>
        <pt x="1182" y="53" on="1"/>
        <pt x="1139" y="31" on="0"/>
        <pt x="913" y="-31" on="0"/>
        <pt x="815" y="-31" on="1"/>
        <pt x="640" y="-31" on="0"/>
        <pt x="364" y="72" on="0"/>
        <pt x="186" y="260" on="0"/>
        <pt x="94" y="516" on="0"/>
      </contour>
    </TTGlyph>
    <TTGlyph name="F" xMin="88" yMin="0" xMax="1208" yMax="1370">
      <contour>
        <pt x="88" y="1116" on="1"/>
        <pt x="98" y="1354" on="1"/>
        <pt x="98" y="1368" on="0"/>
        <pt x="111" y="1368" on="1"/>
        <pt x="346" y="1362" on="1"/>
        <pt x="397" y="1362" on="1"/>
        <pt x="1145" y="1370" on="1"/>
        <pt x="1159" y="1370" on="0"/>
        <pt x="1159" y="1356" on="1"/>
        <pt x="1204" y="1042" on="1"/>
        <pt x="1208" y="1026" on="0"/>
        <pt x="1190" y="1026" on="1"/>
        <pt x="696" y="1012" on="1"/>
        <pt x="711" y="823" on="1"/>
        <pt x="1126" y="823" on="1"/>
        <pt x="1137" y="823" on="0"/>
        <pt x="1137" y="813" on="1"/>
        <pt x="1141" y="711" on="1"/>
        <pt x="1120" y="510" on="1"/>
        <pt x="1120" y="496" on="0"/>
        <pt x="1106" y="496" on="1"/>
        <pt x="717" y="496" on="1"/>
        <pt x="711" y="496" on="0"/>
        <pt x="702" y="487" on="0"/>
        <pt x="702" y="481" on="1"/>
        <pt x="702" y="14" on="1"/>
        <pt x="702" y="0" on="0"/>
        <pt x="688" y="0" on="1"/>
        <pt x="238" y="0" on="1"/>
        <pt x="223" y="0" on="0"/>
        <pt x="223" y="14" on="1"/>
        <pt x="211" y="1098" on="1"/>
        <pt x="102" y="1102" on="1"/>
        <pt x="88" y="1102" on="0"/>
      </contour>
    </TTGlyph>
    <TTGlyph name="G" xMin="68" yMin="-31" xMax="1333" yMax="1395">
      <contour>
        <pt x="68" y="518" on="0"/>
        <pt x="68" y="826" on="0"/>
        <pt x="178" y="1092" on="0"/>
        <pt x="376" y="1285" on="0"/>
        <pt x="667" y="1395" on="0"/>
        <pt x="840" y="1395" on="1"/>
        <pt x="949" y="1395" on="0"/>
        <pt x="1186" y="1343" on="1"/>
        <pt x="1315" y="1315" on="1"/>
        <pt x="1333" y="1312" on="0"/>
        <pt x="1329" y="1296" on="1"/>
        <pt x="1262" y="973" on="1"/>
        <pt x="1261" y="963" on="0"/>
        <pt x="1241" y="959" on="0"/>
        <pt x="1229" y="965" on="1"/>
        <pt x="1162" y="1002" on="0"/>
        <pt x="982" y="1049" on="0"/>
        <pt x="899" y="1049" on="1"/>
        <pt x="812" y="1049" on="0"/>
        <pt x="660" y="1005" on="0"/>
        <pt x="538" y="917" on="0"/>
        <pt x="467" y="771" on="0"/>
        <pt x="467" y="585" on="0"/>
        <pt x="557" y="407" on="0"/>
        <pt x="718" y="291" on="0"/>
        <pt x="904" y="291" on="0"/>
        <pt x="920" y="293" on="1"/>
        <pt x="936" y="479" on="1"/>
        <pt x="793" y="479" on="1"/>
        <pt x="776" y="479" on="0"/>
        <pt x="778" y="494" on="1"/>
        <pt x="825" y="756" on="1"/>
        <pt x="828" y="770" on="0"/>
        <pt x="842" y="770" on="1"/>
        <pt x="991" y="766" on="1"/>
        <pt x="1298" y="788" on="1"/>
        <pt x="1319" y="791" on="0"/>
        <pt x="1319" y="770" on="1"/>
        <pt x="1294" y="74" on="1"/>
        <pt x="1039" y="-31" on="0"/>
        <pt x="825" y="-31" on="1"/>
        <pt x="649" y="-31" on="0"/>
        <pt x="363" y="73" on="0"/>
        <pt x="171" y="259" on="0"/>
      </contour>
    </TTGlyph>
    <TTGlyph name="H" xMin="113" yMin="0" xMax="1464" yMax="1374">
      <contour>
        <pt x="113" y="1356" on="1"/>
        <pt x="113" y="1370" on="0"/>
        <pt x="127" y="1370" on="1"/>
        <pt x="586" y="1364" on="1"/>
        <pt x="600" y="1364" on="0"/>
        <pt x="600" y="1350" on="1"/>
        <pt x="616" y="801" on="1"/>
        <pt x="979" y="801" on="1"/>
        <pt x="987" y="1360" on="1"/>
        <pt x="987" y="1374" on="0"/>
        <pt x="1001" y="1374" on="1"/>
        <pt x="1450" y="1358" on="1"/>
        <pt x="1464" y="1358" on="0"/>
        <pt x="1464" y="1343" on="1"/>
        <pt x="1432" y="14" on="1"/>
        <pt x="1432" y="0" on="0"/>
        <pt x="1417" y="0" on="1"/>
        <pt x="999" y="0" on="1"/>
        <pt x="985" y="0" on="0"/>
        <pt x="985" y="14" on="1"/>
        <pt x="971" y="444" on="1"/>
        <pt x="616" y="444" on="1"/>
        <pt x="618" y="14" on="1"/>
        <pt x="618" y="0" on="0"/>
        <pt x="604" y="0" on="1"/>
        <pt x="145" y="8" on="1"/>
        <pt x="131" y="8" on="0"/>
        <pt x="131" y="23" on="1"/>
        <pt x="145" y="332" on="1"/>
      </contour>
    </TTGlyph>
    <TTGlyph name="I" xMin="106" yMin="-4" xMax="580" yMax="1368">
      <contour>
        <pt x="106" y="766" on="1"/>
        <pt x="127" y="1346" on="1"/>
        <pt x="127" y="1360" on="0"/>
        <pt x="141" y="1360" on="1"/>
        <pt x="350" y="1368" on="1"/>
        <pt x="555" y="1360" on="1"/>
        <pt x="569" y="1360" on="0"/>
        <pt x="569" y="1346" on="1"/>
        <pt x="580" y="465" on="1"/>
        <pt x="569" y="16" on="1"/>
        <pt x="569" y="2" on="0"/>
        <pt x="555" y="2" on="1"/>
        <pt x="393" y="0" on="1"/>
        <pt x="315" y="-4" on="1"/>
        <pt x="141" y="2" on="1"/>
        <pt x="127" y="2" on="0"/>
        <pt x="127" y="16" on="1"/>
      </contour>
    </TTGlyph>
    <TTGlyph name="Iacute" xMin="106" yMin="-4" xMax="771" yMax="1786">
      <contour>
        <pt x="106" y="766" on="1"/>
        <pt x="127" y="1346" on="1"/>
        <pt x="127" y="1360" on="0"/>
        <pt x="141" y="1360" on="1"/>
        <pt x="350" y="1368" on="1"/>
        <pt x="555" y="1360" on="1"/>
        <pt x="569" y="1360" on="0"/>
        <pt x="569" y="1346" on="1"/>
        <pt x="580" y="465" on="1"/>
        <pt x="569" y="16" on="1"/>
        <pt x="569" y="2" on="0"/>
        <pt x="555" y="2" on="1"/>
        <pt x="393" y="0" on="1"/>
        <pt x="315" y="-4" on="1"/>
        <pt x="141" y="2" on="1"/>
        <pt x="127" y="2" on="0"/>
        <pt x="127" y="16" on="1"/>
      </contour>
      <contour>
        <pt x="195" y="1534" on="1"/>
        <pt x="377" y="1765" on="1"/>
        <pt x="391" y="1784" on="0"/>
        <pt x="420" y="1784" on="1"/>
        <pt x="756" y="1786" on="1"/>
        <pt x="771" y="1784" on="0"/>
        <pt x="771" y="1770" on="0"/>
        <pt x="764" y="1763" on="1"/>
        <pt x="489" y="1528" on="1"/>
        <pt x="469" y="1511" on="0"/>
        <pt x="449" y="1511" on="1"/>
        <pt x="203" y="1516" on="1"/>
        <pt x="183" y="1516" on="0"/>
      </contour>
    </TTGlyph>
    <TTGlyph name="Icircumflex" xMin="-58" yMin="-4" xMax="763" yMax="1788">
      <contour>
        <pt x="-54" y="1513" on="0"/>
        <pt x="-58" y="1524" on="0"/>
        <pt x="-51" y="1532" on="1"/>
        <pt x="168" y="1765" on="1"/>
        <pt x="187" y="1784" on="0"/>
        <pt x="211" y="1784" on="1"/>
        <pt x="317" y="1788" on="1"/>
        <pt x="492" y="1786" on="1"/>
        <pt x="516" y="1786" on="0"/>
        <pt x="535" y="1767" on="1"/>
        <pt x="756" y="1532" on="1"/>
        <pt x="763" y="1524" on="0"/>
        <pt x="759" y="1513" on="0"/>
        <pt x="748" y="1513" on="1"/>
        <pt x="524" y="1509" on="1"/>
        <pt x="503" y="1509" on="0"/>
        <pt x="483" y="1526" on="1"/>
        <pt x="350" y="1634" on="1"/>
        <pt x="221" y="1526" on="1"/>
        <pt x="201" y="1509" on="0"/>
        <pt x="180" y="1509" on="1"/>
        <pt x="-43" y="1513" on="1"/>
      </contour>
      <contour>
        <pt x="106" y="766" on="1"/>
        <pt x="127" y="1346" on="1"/>
        <pt x="127" y="1360" on="0"/>
        <pt x="141" y="1360" on="1"/>
        <pt x="350" y="1368" on="1"/>
        <pt x="555" y="1360" on="1"/>
        <pt x="569" y="1360" on="0"/>
        <pt x="569" y="1346" on="1"/>
        <pt x="580" y="465" on="1"/>
        <pt x="569" y="16" on="1"/>
        <pt x="569" y="2" on="0"/>
        <pt x="555" y="2" on="1"/>
        <pt x="393" y="0" on="1"/>
        <pt x="315" y="-4" on="1"/>
        <pt x="141" y="2" on="1"/>
        <pt x="127" y="2" on="0"/>
        <pt x="127" y="16" on="1"/>
      </contour>
    </TTGlyph>
    <TTGlyph name="Idieresis" xMin="-6" yMin="-4" xMax="705" yMax="1776">
      <contour>
        <pt x="-6" y="1564" on="0"/>
        <pt x="-6" y="1688" on="0"/>
        <pt x="82" y="1776" on="0"/>
        <pt x="204" y="1776" on="0"/>
        <pt x="293" y="1688" on="0"/>
        <pt x="293" y="1626" on="1"/>
        <pt x="293" y="1565" on="0"/>
        <pt x="205" y="1477" on="0"/>
        <pt x="143" y="1477" on="1"/>
        <pt x="82" y="1477" on="0"/>
      </contour>
      <contour>
        <pt x="106" y="766" on="1"/>
        <pt x="127" y="1346" on="1"/>
        <pt x="127" y="1360" on="0"/>
        <pt x="141" y="1360" on="1"/>
        <pt x="350" y="1368" on="1"/>
        <pt x="555" y="1360" on="1"/>
        <pt x="569" y="1360" on="0"/>
        <pt x="569" y="1346" on="1"/>
        <pt x="580" y="465" on="1"/>
        <pt x="569" y="16" on="1"/>
        <pt x="569" y="2" on="0"/>
        <pt x="555" y="2" on="1"/>
        <pt x="393" y="0" on="1"/>
        <pt x="315" y="-4" on="1"/>
        <pt x="141" y="2" on="1"/>
        <pt x="127" y="2" on="0"/>
        <pt x="127" y="16" on="1"/>
      </contour>
      <contour>
        <pt x="406" y="1564" on="0"/>
        <pt x="406" y="1688" on="0"/>
        <pt x="494" y="1776" on="0"/>
        <pt x="616" y="1776" on="0"/>
        <pt x="705" y="1688" on="0"/>
        <pt x="705" y="1626" on="1"/>
        <pt x="705" y="1565" on="0"/>
        <pt x="617" y="1477" on="0"/>
        <pt x="555" y="1477" on="1"/>
        <pt x="494" y="1477" on="0"/>
      </contour>
    </TTGlyph>
    <TTGlyph name="Igrave" xMin="-60" yMin="-4" xMax="580" yMax="1786">
      <contour>
        <pt x="-60" y="1766" on="0"/>
        <pt x="-60" y="1780" on="0"/>
        <pt x="-45" y="1782" on="1"/>
        <pt x="291" y="1786" on="1"/>
        <pt x="320" y="1786" on="0"/>
        <pt x="334" y="1767" on="1"/>
        <pt x="516" y="1534" on="1"/>
        <pt x="528" y="1516" on="0"/>
        <pt x="508" y="1516" on="1"/>
        <pt x="262" y="1511" on="1"/>
        <pt x="241" y="1511" on="0"/>
        <pt x="221" y="1528" on="1"/>
        <pt x="-53" y="1759" on="1"/>
      </contour>
      <contour>
        <pt x="106" y="766" on="1"/>
        <pt x="127" y="1346" on="1"/>
        <pt x="127" y="1360" on="0"/>
        <pt x="141" y="1360" on="1"/>
        <pt x="350" y="1368" on="1"/>
        <pt x="555" y="1360" on="1"/>
        <pt x="569" y="1360" on="0"/>
        <pt x="569" y="1346" on="1"/>
        <pt x="580" y="465" on="1"/>
        <pt x="569" y="16" on="1"/>
        <pt x="569" y="2" on="0"/>
        <pt x="555" y="2" on="1"/>
        <pt x="393" y="0" on="1"/>
        <pt x="315" y="-4" on="1"/>
        <pt x="141" y="2" on="1"/>
        <pt x="127" y="2" on="0"/>
        <pt x="127" y="16" on="1"/>
      </contour>
    </TTGlyph>
    <TTGlyph name="J" xMin="53" yMin="-31" xMax="1083" yMax="1372">
      <contour>
        <pt x="53" y="440" on="1"/>
        <pt x="53" y="447" on="0"/>
        <pt x="64" y="454" on="0"/>
        <pt x="70" y="451" on="1"/>
        <pt x="287" y="350" on="0"/>
        <pt x="395" y="350" on="1"/>
        <pt x="478" y="350" on="0"/>
        <pt x="532" y="393" on="1"/>
        <pt x="566" y="418" on="0"/>
        <pt x="594" y="460" on="0"/>
        <pt x="601" y="506" on="1"/>
        <pt x="606" y="542" on="0"/>
        <pt x="606" y="604" on="1"/>
        <pt x="606" y="621" on="0"/>
        <pt x="606" y="641" on="1"/>
        <pt x="598" y="1026" on="1"/>
        <pt x="606" y="1339" on="1"/>
        <pt x="606" y="1354" on="0"/>
        <pt x="621" y="1354" on="1"/>
        <pt x="1051" y="1372" on="1"/>
        <pt x="1065" y="1372" on="0"/>
        <pt x="1065" y="1358" on="1"/>
        <pt x="1083" y="825" on="1"/>
        <pt x="1079" y="625" on="1"/>
        <pt x="1075" y="461" on="1"/>
        <pt x="1069" y="222" on="0"/>
        <pt x="753" y="-25" on="0"/>
        <pt x="461" y="-31" on="1"/>
        <pt x="455" y="-31" on="0"/>
        <pt x="449" y="-31" on="1"/>
        <pt x="384" y="-31" on="0"/>
        <pt x="298" y="-12" on="1"/>
        <pt x="203" y="10" on="0"/>
        <pt x="144" y="32" on="1"/>
        <pt x="84" y="55" on="1"/>
      </contour>
    </TTGlyph>
    <TTGlyph name="K" xMin="86" yMin="-5" xMax="1640" yMax="1372">
      <contour>
        <pt x="86" y="1112" on="1"/>
        <pt x="88" y="1343" on="1"/>
        <pt x="88" y="1358" on="0"/>
        <pt x="102" y="1358" on="1"/>
        <pt x="197" y="1362" on="1"/>
        <pt x="676" y="1364" on="1"/>
        <pt x="690" y="1364" on="0"/>
        <pt x="690" y="1350" on="1"/>
        <pt x="707" y="807" on="1"/>
        <pt x="707" y="802" on="0"/>
        <pt x="718" y="796" on="0"/>
        <pt x="723" y="803" on="1"/>
        <pt x="1118" y="1346" on="1"/>
        <pt x="1125" y="1356" on="0"/>
        <pt x="1137" y="1356" on="1"/>
        <pt x="1624" y="1372" on="1"/>
        <pt x="1633" y="1372" on="0"/>
        <pt x="1640" y="1364" on="0"/>
        <pt x="1634" y="1356" on="1"/>
        <pt x="1165" y="748" on="1"/>
        <pt x="1155" y="735" on="0"/>
        <pt x="1154" y="697" on="0"/>
        <pt x="1163" y="684" on="1"/>
        <pt x="1632" y="12" on="1"/>
        <pt x="1637" y="6" on="0"/>
        <pt x="1631" y="-5" on="0"/>
        <pt x="1624" y="-4" on="1"/>
        <pt x="1352" y="6" on="1"/>
        <pt x="1096" y="4" on="1"/>
        <pt x="1068" y="4" on="0"/>
        <pt x="1061" y="14" on="1"/>
        <pt x="729" y="516" on="1"/>
        <pt x="722" y="526" on="0"/>
        <pt x="710" y="532" on="0"/>
        <pt x="702" y="523" on="0"/>
        <pt x="702" y="512" on="1"/>
        <pt x="709" y="14" on="1"/>
        <pt x="709" y="0" on="0"/>
        <pt x="694" y="0" on="1"/>
        <pt x="250" y="0" on="1"/>
        <pt x="236" y="0" on="0"/>
        <pt x="236" y="14" on="1"/>
        <pt x="217" y="649" on="1"/>
        <pt x="215" y="726" on="0"/>
        <pt x="215" y="950" on="0"/>
        <pt x="217" y="1096" on="1"/>
        <pt x="139" y="1096" on="1"/>
        <pt x="100" y="1098" on="1"/>
        <pt x="86" y="1098" on="0"/>
      </contour>
    </TTGlyph>
    <TTGlyph name="L" xMin="119" yMin="0" xMax="1071" yMax="1364">
      <contour>
        <pt x="119" y="362" on="1"/>
        <pt x="119" y="1350" on="1"/>
        <pt x="119" y="1364" on="0"/>
        <pt x="133" y="1364" on="1"/>
        <pt x="575" y="1364" on="1"/>
        <pt x="590" y="1364" on="0"/>
        <pt x="590" y="1350" on="1"/>
        <pt x="573" y="838" on="1"/>
        <pt x="588" y="356" on="1"/>
        <pt x="588" y="344" on="0"/>
        <pt x="602" y="344" on="1"/>
        <pt x="1053" y="350" on="1"/>
        <pt x="1071" y="350" on="0"/>
        <pt x="1065" y="334" on="1"/>
        <pt x="987" y="14" on="1"/>
        <pt x="982" y="0" on="0"/>
        <pt x="969" y="0" on="1"/>
        <pt x="147" y="0" on="1"/>
        <pt x="133" y="0" on="0"/>
        <pt x="133" y="14" on="1"/>
      </contour>
    </TTGlyph>
    <TTGlyph name="M" xMin="90" yMin="-2" xMax="1872" yMax="1370">
      <contour>
        <pt x="90" y="1116" on="1"/>
        <pt x="92" y="1346" on="1"/>
        <pt x="92" y="1360" on="0"/>
        <pt x="106" y="1360" on="1"/>
        <pt x="172" y="1366" on="1"/>
        <pt x="287" y="1366" on="1"/>
        <pt x="305" y="1365" on="0"/>
        <pt x="331" y="1364" on="1"/>
        <pt x="358" y="1362" on="0"/>
        <pt x="428" y="1360" on="1"/>
        <pt x="460" y="1359" on="0"/>
        <pt x="483" y="1358" on="1"/>
        <pt x="511" y="1358" on="0"/>
        <pt x="526" y="1360" on="1"/>
        <pt x="649" y="1364" on="1"/>
        <pt x="660" y="1364" on="0"/>
        <pt x="664" y="1356" on="1"/>
        <pt x="956" y="924" on="1"/>
        <pt x="966" y="907" on="0"/>
        <pt x="977" y="924" on="1"/>
        <pt x="1257" y="1358" on="1"/>
        <pt x="1265" y="1370" on="0"/>
        <pt x="1276" y="1370" on="1"/>
        <pt x="1645" y="1362" on="1"/>
        <pt x="1831" y="1362" on="1"/>
        <pt x="1858" y="1362" on="1"/>
        <pt x="1872" y="1362" on="0"/>
        <pt x="1872" y="1348" on="1"/>
        <pt x="1870" y="1116" on="1"/>
        <pt x="1870" y="1102" on="0"/>
        <pt x="1855" y="1102" on="1"/>
        <pt x="1776" y="1098" on="1"/>
        <pt x="1747" y="1098" on="1"/>
        <pt x="1778" y="621" on="1"/>
        <pt x="1800" y="12" on="1"/>
        <pt x="1800" y="-2" on="0"/>
        <pt x="1786" y="-2" on="1"/>
        <pt x="1364" y="-2" on="1"/>
        <pt x="1350" y="-2" on="0"/>
        <pt x="1350" y="12" on="1"/>
        <pt x="1360" y="537" on="1"/>
        <pt x="1329" y="711" on="1"/>
        <pt x="1328" y="717" on="0"/>
        <pt x="1323" y="722" on="0"/>
        <pt x="1315" y="720" on="0"/>
        <pt x="1311" y="715" on="1"/>
        <pt x="977" y="231" on="1"/>
        <pt x="974" y="226" on="0"/>
        <pt x="964" y="226" on="0"/>
        <pt x="961" y="231" on="1"/>
        <pt x="631" y="705" on="1"/>
        <pt x="626" y="714" on="0"/>
        <pt x="614" y="709" on="0"/>
        <pt x="612" y="698" on="1"/>
        <pt x="586" y="315" on="1"/>
        <pt x="598" y="14" on="1"/>
        <pt x="598" y="0" on="0"/>
        <pt x="584" y="0" on="1"/>
        <pt x="178" y="0" on="1"/>
        <pt x="164" y="0" on="0"/>
        <pt x="164" y="14" on="1"/>
        <pt x="172" y="338" on="1"/>
        <pt x="197" y="942" on="1"/>
        <pt x="209" y="1100" on="1"/>
        <pt x="141" y="1100" on="1"/>
        <pt x="104" y="1100" on="1"/>
        <pt x="90" y="1100" on="0"/>
      </contour>
    </TTGlyph>
    <TTGlyph name="N" xMin="88" yMin="-6" xMax="1415" yMax="1368">
      <contour>
        <pt x="88" y="1118" on="1"/>
        <pt x="88" y="1354" on="1"/>
        <pt x="88" y="1368" on="0"/>
        <pt x="102" y="1368" on="1"/>
        <pt x="190" y="1364" on="1"/>
        <pt x="305" y="1364" on="1"/>
        <pt x="436" y="1364" on="1"/>
        <pt x="471" y="1362" on="1"/>
        <pt x="623" y="1362" on="1"/>
        <pt x="633" y="1362" on="0"/>
        <pt x="641" y="1348" on="1"/>
        <pt x="973" y="770" on="1"/>
        <pt x="958" y="1350" on="1"/>
        <pt x="958" y="1364" on="0"/>
        <pt x="973" y="1364" on="1"/>
        <pt x="1399" y="1364" on="1"/>
        <pt x="1413" y="1364" on="0"/>
        <pt x="1413" y="1350" on="1"/>
        <pt x="1393" y="510" on="1"/>
        <pt x="1415" y="14" on="1"/>
        <pt x="1415" y="0" on="0"/>
        <pt x="1401" y="0" on="1"/>
        <pt x="1022" y="0" on="1"/>
        <pt x="1010" y="0" on="0"/>
        <pt x="999" y="14" on="1"/>
        <pt x="633" y="567" on="1"/>
        <pt x="655" y="14" on="1"/>
        <pt x="655" y="0" on="0"/>
        <pt x="641" y="0" on="1"/>
        <pt x="461" y="-6" on="1"/>
        <pt x="211" y="0" on="1"/>
        <pt x="197" y="0" on="0"/>
        <pt x="197" y="14" on="1"/>
        <pt x="215" y="705" on="1"/>
        <pt x="217" y="1106" on="1"/>
        <pt x="141" y="1106" on="1"/>
        <pt x="102" y="1104" on="1"/>
        <pt x="94" y="1104" on="0"/>
        <pt x="88" y="1109" on="0"/>
      </contour>
    </TTGlyph>
    <TTGlyph name="O" xMin="67" yMin="-31" xMax="1396" yMax="1395">
      <contour>
        <pt x="68" y="664" on="1"/>
        <pt x="67" y="679" on="0"/>
        <pt x="67" y="694" on="1"/>
        <pt x="68" y="815" on="0"/>
        <pt x="104" y="933" on="1"/>
        <pt x="144" y="1065" on="0"/>
        <pt x="219" y="1159" on="1"/>
        <pt x="405" y="1395" on="0"/>
        <pt x="737" y="1395" on="1"/>
        <pt x="1052" y="1394" on="0"/>
        <pt x="1229" y="1198" on="1"/>
        <pt x="1396" y="1013" on="0"/>
        <pt x="1396" y="708" on="1"/>
        <pt x="1396" y="689" on="0"/>
        <pt x="1395" y="670" on="1"/>
        <pt x="1386" y="348" on="0"/>
        <pt x="1028" y="-31" on="0"/>
        <pt x="733" y="-31" on="1"/>
        <pt x="545" y="-31" on="0"/>
        <pt x="247" y="143" on="0"/>
        <pt x="74" y="460" on="0"/>
      </contour>
      <contour>
        <pt x="508" y="668" on="1"/>
        <pt x="510" y="518" on="0"/>
        <pt x="621" y="346" on="0"/>
        <pt x="717" y="346" on="1"/>
        <pt x="814" y="346" on="0"/>
        <pt x="924" y="512" on="0"/>
        <pt x="926" y="655" on="1"/>
        <pt x="926" y="660" on="0"/>
        <pt x="926" y="665" on="1"/>
        <pt x="926" y="806" on="0"/>
        <pt x="872" y="891" on="1"/>
        <pt x="816" y="979" on="0"/>
        <pt x="715" y="979" on="1"/>
        <pt x="616" y="979" on="0"/>
        <pt x="508" y="814" on="0"/>
      </contour>
    </TTGlyph>
    <TTGlyph name="Oacute" xMin="63" yMin="-31" xMax="1406" yMax="1786">
      <contour>
        <pt x="68" y="664" on="1"/>
        <pt x="63" y="801" on="0"/>
        <pt x="144" y="1065" on="0"/>
        <pt x="219" y="1159" on="1"/>
        <pt x="405" y="1395" on="0"/>
        <pt x="737" y="1395" on="1"/>
        <pt x="1052" y="1395" on="0"/>
        <pt x="1406" y="1002" on="0"/>
        <pt x="1395" y="670" on="1"/>
        <pt x="1386" y="348" on="0"/>
        <pt x="1028" y="-31" on="0"/>
        <pt x="733" y="-31" on="1"/>
        <pt x="545" y="-31" on="0"/>
        <pt x="247" y="143" on="0"/>
        <pt x="74" y="460" on="0"/>
      </contour>
      <contour>
        <pt x="508" y="668" on="1"/>
        <pt x="510" y="518" on="0"/>
        <pt x="621" y="346" on="0"/>
        <pt x="717" y="346" on="1"/>
        <pt x="814" y="346" on="0"/>
        <pt x="924" y="512" on="0"/>
        <pt x="926" y="655" on="1"/>
        <pt x="928" y="803" on="0"/>
        <pt x="815" y="979" on="0"/>
        <pt x="715" y="979" on="1"/>
        <pt x="616" y="979" on="0"/>
        <pt x="508" y="814" on="0"/>
      </contour>
      <contour>
        <pt x="586" y="1534" on="1"/>
        <pt x="768" y="1765" on="1"/>
        <pt x="782" y="1784" on="0"/>
        <pt x="811" y="1784" on="1"/>
        <pt x="1147" y="1786" on="1"/>
        <pt x="1162" y="1784" on="0"/>
        <pt x="1162" y="1770" on="0"/>
        <pt x="1155" y="1763" on="1"/>
        <pt x="881" y="1528" on="1"/>
        <pt x="861" y="1511" on="0"/>
        <pt x="840" y="1511" on="1"/>
        <pt x="594" y="1516" on="1"/>
        <pt x="574" y="1516" on="0"/>
      </contour>
    </TTGlyph>
    <TTGlyph name="Ocircumflex" xMin="63" yMin="-31" xMax="1406" yMax="1788">
      <contour>
        <pt x="68" y="664" on="1"/>
        <pt x="63" y="801" on="0"/>
        <pt x="144" y="1065" on="0"/>
        <pt x="219" y="1159" on="1"/>
        <pt x="405" y="1395" on="0"/>
        <pt x="737" y="1395" on="1"/>
        <pt x="1052" y="1395" on="0"/>
        <pt x="1406" y="1002" on="0"/>
        <pt x="1395" y="670" on="1"/>
        <pt x="1386" y="348" on="0"/>
        <pt x="1028" y="-31" on="0"/>
        <pt x="733" y="-31" on="1"/>
        <pt x="545" y="-31" on="0"/>
        <pt x="247" y="143" on="0"/>
        <pt x="74" y="460" on="0"/>
      </contour>
      <contour>
        <pt x="308" y="1513" on="0"/>
        <pt x="304" y="1524" on="0"/>
        <pt x="311" y="1532" on="1"/>
        <pt x="530" y="1765" on="1"/>
        <pt x="549" y="1784" on="0"/>
        <pt x="573" y="1784" on="1"/>
        <pt x="680" y="1788" on="1"/>
        <pt x="854" y="1786" on="1"/>
        <pt x="878" y="1786" on="0"/>
        <pt x="897" y="1767" on="1"/>
        <pt x="1118" y="1532" on="1"/>
        <pt x="1125" y="1524" on="0"/>
        <pt x="1121" y="1513" on="0"/>
        <pt x="1110" y="1513" on="1"/>
        <pt x="887" y="1509" on="1"/>
        <pt x="866" y="1509" on="0"/>
        <pt x="846" y="1526" on="1"/>
        <pt x="713" y="1634" on="1"/>
        <pt x="584" y="1526" on="1"/>
        <pt x="564" y="1509" on="0"/>
        <pt x="543" y="1509" on="1"/>
        <pt x="319" y="1513" on="1"/>
      </contour>
      <contour>
        <pt x="508" y="668" on="1"/>
        <pt x="510" y="518" on="0"/>
        <pt x="621" y="346" on="0"/>
        <pt x="717" y="346" on="1"/>
        <pt x="814" y="346" on="0"/>
        <pt x="924" y="512" on="0"/>
        <pt x="926" y="655" on="1"/>
        <pt x="928" y="803" on="0"/>
        <pt x="815" y="979" on="0"/>
        <pt x="715" y="979" on="1"/>
        <pt x="616" y="979" on="0"/>
        <pt x="508" y="814" on="0"/>
      </contour>
    </TTGlyph>
    <TTGlyph name="Odieresis" xMin="63" yMin="-31" xMax="1406" yMax="1776">
      <contour>
        <pt x="68" y="664" on="1"/>
        <pt x="63" y="801" on="0"/>
        <pt x="144" y="1065" on="0"/>
        <pt x="219" y="1159" on="1"/>
        <pt x="405" y="1395" on="0"/>
        <pt x="737" y="1395" on="1"/>
        <pt x="1052" y="1395" on="0"/>
        <pt x="1406" y="1002" on="0"/>
        <pt x="1395" y="670" on="1"/>
        <pt x="1386" y="348" on="0"/>
        <pt x="1028" y="-31" on="0"/>
        <pt x="733" y="-31" on="1"/>
        <pt x="545" y="-31" on="0"/>
        <pt x="247" y="143" on="0"/>
        <pt x="74" y="460" on="0"/>
      </contour>
      <contour>
        <pt x="360" y="1626" on="1"/>
        <pt x="360" y="1688" on="0"/>
        <pt x="448" y="1776" on="0"/>
        <pt x="510" y="1776" on="1"/>
        <pt x="571" y="1776" on="0"/>
        <pt x="659" y="1688" on="0"/>
        <pt x="659" y="1564" on="0"/>
        <pt x="572" y="1477" on="0"/>
        <pt x="448" y="1477" on="0"/>
        <pt x="360" y="1565" on="0"/>
      </contour>
      <contour>
        <pt x="508" y="668" on="1"/>
        <pt x="510" y="518" on="0"/>
        <pt x="621" y="346" on="0"/>
        <pt x="717" y="346" on="1"/>
        <pt x="814" y="346" on="0"/>
        <pt x="924" y="512" on="0"/>
        <pt x="926" y="655" on="1"/>
        <pt x="928" y="803" on="0"/>
        <pt x="815" y="979" on="0"/>
        <pt x="715" y="979" on="1"/>
        <pt x="616" y="979" on="0"/>
        <pt x="508" y="814" on="0"/>
      </contour>
      <contour>
        <pt x="772" y="1626" on="1"/>
        <pt x="772" y="1688" on="0"/>
        <pt x="860" y="1776" on="0"/>
        <pt x="922" y="1776" on="1"/>
        <pt x="983" y="1776" on="0"/>
        <pt x="1071" y="1688" on="0"/>
        <pt x="1071" y="1564" on="0"/>
        <pt x="984" y="1477" on="0"/>
        <pt x="860" y="1477" on="0"/>
        <pt x="772" y="1565" on="0"/>
      </contour>
    </TTGlyph>
    <TTGlyph name="Ograve" xMin="63" yMin="-31" xMax="1406" yMax="1786">
      <contour>
        <pt x="68" y="664" on="1"/>
        <pt x="63" y="801" on="0"/>
        <pt x="144" y="1065" on="0"/>
        <pt x="219" y="1159" on="1"/>
        <pt x="405" y="1395" on="0"/>
        <pt x="737" y="1395" on="1"/>
        <pt x="1052" y="1395" on="0"/>
        <pt x="1406" y="1002" on="0"/>
        <pt x="1395" y="670" on="1"/>
        <pt x="1386" y="348" on="0"/>
        <pt x="1028" y="-31" on="0"/>
        <pt x="733" y="-31" on="1"/>
        <pt x="545" y="-31" on="0"/>
        <pt x="247" y="143" on="0"/>
        <pt x="74" y="460" on="0"/>
      </contour>
      <contour>
        <pt x="280" y="1766" on="0"/>
        <pt x="280" y="1780" on="0"/>
        <pt x="295" y="1782" on="1"/>
        <pt x="631" y="1786" on="1"/>
        <pt x="660" y="1786" on="0"/>
        <pt x="674" y="1767" on="1"/>
        <pt x="856" y="1534" on="1"/>
        <pt x="868" y="1516" on="0"/>
        <pt x="848" y="1516" on="1"/>
        <pt x="602" y="1511" on="1"/>
        <pt x="581" y="1511" on="0"/>
        <pt x="561" y="1528" on="1"/>
        <pt x="287" y="1759" on="1"/>
      </contour>
      <contour>
        <pt x="508" y="668" on="1"/>
        <pt x="510" y="518" on="0"/>
        <pt x="621" y="346" on="0"/>
        <pt x="717" y="346" on="1"/>
        <pt x="814" y="346" on="0"/>
        <pt x="924" y="512" on="0"/>
        <pt x="926" y="655" on="1"/>
        <pt x="928" y="803" on="0"/>
        <pt x="815" y="979" on="0"/>
        <pt x="715" y="979" on="1"/>
        <pt x="616" y="979" on="0"/>
        <pt x="508" y="814" on="0"/>
      </contour>
    </TTGlyph>
    <TTGlyph name="P" xMin="86" yMin="-4" xMax="1341" yMax="1366">
      <contour>
        <pt x="86" y="1112" on="1"/>
        <pt x="87" y="1131" on="0"/>
        <pt x="88" y="1158" on="1"/>
        <pt x="88" y="1184" on="0"/>
        <pt x="89" y="1256" on="1"/>
        <pt x="89" y="1280" on="0"/>
        <pt x="89" y="1299" on="1"/>
        <pt x="89" y="1336" on="0"/>
        <pt x="88" y="1350" on="1"/>
        <pt x="88" y="1364" on="0"/>
        <pt x="102" y="1364" on="1"/>
        <pt x="731" y="1366" on="1"/>
        <pt x="910" y="1366" on="0"/>
        <pt x="1107" y="1334" on="0"/>
        <pt x="1178" y="1294" on="1"/>
        <pt x="1270" y="1241" on="0"/>
        <pt x="1341" y="1060" on="0"/>
        <pt x="1341" y="930" on="1"/>
        <pt x="1341" y="753" on="0"/>
        <pt x="1210" y="553" on="0"/>
        <pt x="1049" y="516" on="1"/>
        <pt x="993" y="504" on="0"/>
        <pt x="936" y="494" on="0"/>
        <pt x="817" y="483" on="0"/>
        <pt x="745" y="483" on="1"/>
        <pt x="651" y="483" on="1"/>
        <pt x="643" y="12" on="1"/>
        <pt x="643" y="-4" on="0"/>
        <pt x="629" y="-4" on="1"/>
        <pt x="231" y="6" on="1"/>
        <pt x="217" y="6" on="0"/>
        <pt x="217" y="20" on="1"/>
        <pt x="209" y="361" on="0"/>
        <pt x="209" y="457" on="1"/>
        <pt x="209" y="505" on="0"/>
        <pt x="215" y="898" on="0"/>
        <pt x="215" y="1012" on="1"/>
        <pt x="216" y="1030" on="0"/>
        <pt x="216" y="1072" on="0"/>
        <pt x="215" y="1096" on="1"/>
        <pt x="203" y="1097" on="0"/>
        <pt x="111" y="1097" on="0"/>
        <pt x="100" y="1098" on="1"/>
        <pt x="86" y="1098" on="0"/>
      </contour>
      <contour>
        <pt x="651" y="786" on="1"/>
        <pt x="678" y="784" on="0"/>
        <pt x="754" y="784" on="1"/>
        <pt x="920" y="784" on="0"/>
        <pt x="920" y="932" on="1"/>
        <pt x="920" y="1022" on="0"/>
        <pt x="860" y="1059" on="1"/>
        <pt x="829" y="1079" on="0"/>
        <pt x="737" y="1079" on="1"/>
        <pt x="651" y="1079" on="1"/>
      </contour>
    </TTGlyph>
    <TTGlyph name="Q" xMin="68" yMin="-243" xMax="1444" yMax="1395">
      <contour>
        <pt x="68" y="700" on="1"/>
        <pt x="68" y="941" on="0"/>
        <pt x="325" y="1285" on="0"/>
        <pt x="559" y="1360" on="1"/>
        <pt x="670" y="1395" on="0"/>
        <pt x="807" y="1395" on="1"/>
        <pt x="1028" y="1395" on="0"/>
        <pt x="1347" y="1121" on="0"/>
        <pt x="1413" y="874" on="1"/>
        <pt x="1444" y="747" on="0"/>
        <pt x="1444" y="637" on="1"/>
        <pt x="1444" y="463" on="0"/>
        <pt x="1300" y="184" on="0"/>
        <pt x="1161" y="92" on="1"/>
        <pt x="1231" y="-102" on="1"/>
        <pt x="1234" y="-109" on="0"/>
        <pt x="1226" y="-121" on="0"/>
        <pt x="1219" y="-123" on="1"/>
        <pt x="840" y="-236" on="1"/>
        <pt x="820" y="-243" on="0"/>
        <pt x="815" y="-225" on="1"/>
        <pt x="777" y="-107" on="0"/>
        <pt x="752" y="-33" on="1"/>
        <pt x="735" y="-33" on="1"/>
        <pt x="520" y="-33" on="0"/>
        <pt x="185" y="219" on="0"/>
        <pt x="109" y="446" on="1"/>
        <pt x="68" y="571" on="0"/>
      </contour>
      <contour>
        <pt x="532" y="698" on="1"/>
        <pt x="532" y="693" on="0"/>
        <pt x="532" y="688" on="1"/>
        <pt x="532" y="635" on="0"/>
        <pt x="542" y="584" on="1"/>
        <pt x="552" y="527" on="0"/>
        <pt x="598" y="417" on="0"/>
        <pt x="691" y="349" on="0"/>
        <pt x="754" y="348" on="1"/>
        <pt x="756" y="348" on="0"/>
        <pt x="759" y="348" on="1"/>
        <pt x="815" y="348" on="0"/>
        <pt x="858" y="371" on="1"/>
        <pt x="902" y="395" on="0"/>
        <pt x="952" y="480" on="0"/>
        <pt x="976" y="578" on="0"/>
        <pt x="977" y="633" on="1"/>
        <pt x="977" y="638" on="0"/>
        <pt x="977" y="643" on="1"/>
        <pt x="977" y="695" on="0"/>
        <pt x="968" y="746" on="1"/>
        <pt x="957" y="802" on="0"/>
        <pt x="909" y="911" on="0"/>
        <pt x="817" y="978" on="0"/>
        <pt x="754" y="979" on="1"/>
        <pt x="753" y="979" on="0"/>
        <pt x="751" y="979" on="1"/>
        <pt x="641" y="979" on="0"/>
        <pt x="588" y="898" on="1"/>
        <pt x="534" y="815" on="0"/>
      </contour>
    </TTGlyph>
    <TTGlyph name="R" xMin="88" yMin="-8" xMax="1537" yMax="1368">
      <contour>
        <pt x="88" y="1120" on="1"/>
        <pt x="96" y="1354" on="1"/>
        <pt x="96" y="1368" on="0"/>
        <pt x="111" y="1368" on="1"/>
        <pt x="209" y="1364" on="1"/>
        <pt x="788" y="1364" on="1"/>
        <pt x="869" y="1364" on="0"/>
        <pt x="963" y="1360" on="1"/>
        <pt x="1157" y="1351" on="0"/>
        <pt x="1403" y="1135" on="0"/>
        <pt x="1403" y="948" on="1"/>
        <pt x="1403" y="815" on="0"/>
        <pt x="1258" y="639" on="0"/>
        <pt x="1133" y="627" on="1"/>
        <pt x="1109" y="624" on="0"/>
        <pt x="1124" y="606" on="1"/>
        <pt x="1532" y="25" on="1"/>
        <pt x="1537" y="19" on="0"/>
        <pt x="1531" y="6" on="0"/>
        <pt x="1524" y="6" on="1"/>
        <pt x="1014" y="-8" on="1"/>
        <pt x="1000" y="-8" on="0"/>
        <pt x="993" y="2" on="1"/>
        <pt x="674" y="528" on="1"/>
        <pt x="674" y="18" on="1"/>
        <pt x="674" y="4" on="0"/>
        <pt x="659" y="4" on="1"/>
        <pt x="223" y="-4" on="1"/>
        <pt x="209" y="-4" on="0"/>
        <pt x="209" y="10" on="1"/>
        <pt x="225" y="1081" on="1"/>
        <pt x="225" y="1100" on="1"/>
        <pt x="102" y="1106" on="1"/>
        <pt x="88" y="1106" on="0"/>
      </contour>
      <contour>
        <pt x="662" y="1071" on="1"/>
        <pt x="678" y="786" on="1"/>
        <pt x="698" y="784" on="0"/>
        <pt x="733" y="784" on="1"/>
        <pt x="787" y="784" on="0"/>
        <pt x="805" y="788" on="1"/>
        <pt x="854" y="794" on="0"/>
        <pt x="915" y="880" on="0"/>
        <pt x="915" y="930" on="1"/>
        <pt x="915" y="962" on="0"/>
        <pt x="892" y="1028" on="0"/>
        <pt x="872" y="1044" on="1"/>
        <pt x="830" y="1071" on="0"/>
        <pt x="735" y="1071" on="1"/>
      </contour>
    </TTGlyph>
    <TTGlyph name="S" xMin="86" yMin="-31" xMax="1004" yMax="1395">
      <contour>
        <pt x="86" y="950" on="1"/>
        <pt x="86" y="1159" on="0"/>
        <pt x="357" y="1395" on="0"/>
        <pt x="598" y="1395" on="1"/>
        <pt x="694" y="1395" on="0"/>
        <pt x="866" y="1364" on="1"/>
        <pt x="869" y="1364" on="0"/>
        <pt x="878" y="1356" on="0"/>
        <pt x="879" y="1350" on="1"/>
        <pt x="893" y="1253" on="1"/>
        <pt x="897" y="995" on="1"/>
        <pt x="897" y="977" on="0"/>
        <pt x="881" y="987" on="1"/>
        <pt x="831" y="1014" on="0"/>
        <pt x="737" y="1032" on="0"/>
        <pt x="670" y="1032" on="1"/>
        <pt x="607" y="1032" on="0"/>
        <pt x="535" y="993" on="0"/>
        <pt x="535" y="961" on="1"/>
        <pt x="535" y="935" on="0"/>
        <pt x="585" y="889" on="0"/>
        <pt x="651" y="854" on="1"/>
        <pt x="762" y="795" on="1"/>
        <pt x="893" y="723" on="0"/>
        <pt x="1004" y="557" on="0"/>
        <pt x="1004" y="434" on="1"/>
        <pt x="1004" y="313" on="0"/>
        <pt x="928" y="132" on="0"/>
        <pt x="785" y="22" on="0"/>
        <pt x="595" y="-31" on="0"/>
        <pt x="475" y="-31" on="1"/>
        <pt x="270" y="-31" on="0"/>
        <pt x="125" y="23" on="1"/>
        <pt x="123" y="23" on="0"/>
        <pt x="116" y="27" on="0"/>
        <pt x="109" y="37" on="0"/>
        <pt x="109" y="43" on="1"/>
        <pt x="109" y="469" on="1"/>
        <pt x="109" y="478" on="0"/>
        <pt x="122" y="484" on="0"/>
        <pt x="129" y="479" on="1"/>
        <pt x="298" y="358" on="0"/>
        <pt x="440" y="358" on="1"/>
        <pt x="541" y="358" on="0"/>
        <pt x="541" y="424" on="1"/>
        <pt x="541" y="451" on="0"/>
        <pt x="488" y="503" on="0"/>
        <pt x="426" y="539" on="1"/>
        <pt x="326" y="595" on="0"/>
        <pt x="238" y="652" on="0"/>
        <pt x="199" y="688" on="1"/>
        <pt x="86" y="786" on="0"/>
      </contour>
    </TTGlyph>
    <TTGlyph name="T" xMin="80" yMin="-8" xMax="1329" yMax="1372">
      <contour>
        <pt x="80" y="1358" on="1"/>
        <pt x="80" y="1372" on="0"/>
        <pt x="96" y="1372" on="1"/>
        <pt x="672" y="1356" on="1"/>
        <pt x="1315" y="1364" on="1"/>
        <pt x="1329" y="1364" on="0"/>
        <pt x="1329" y="1350" on="1"/>
        <pt x="1321" y="1012" on="1"/>
        <pt x="1321" y="997" on="0"/>
        <pt x="1307" y="997" on="1"/>
        <pt x="946" y="997" on="1"/>
        <pt x="944" y="719" on="1"/>
        <pt x="934" y="6" on="1"/>
        <pt x="934" y="-8" on="0"/>
        <pt x="920" y="-8" on="1"/>
        <pt x="496" y="8" on="1"/>
        <pt x="481" y="8" on="0"/>
        <pt x="481" y="23" on="1"/>
        <pt x="455" y="545" on="1"/>
        <pt x="455" y="666" on="0"/>
        <pt x="465" y="997" on="1"/>
        <pt x="102" y="997" on="1"/>
        <pt x="88" y="997" on="0"/>
        <pt x="88" y="1012" on="1"/>
      </contour>
    </TTGlyph>
    <TTGlyph name="U" xMin="88" yMin="-31" xMax="1507" yMax="1368">
      <contour>
        <pt x="88" y="1108" on="1"/>
        <pt x="90" y="1348" on="1"/>
        <pt x="90" y="1362" on="0"/>
        <pt x="104" y="1362" on="1"/>
        <pt x="188" y="1366" on="1"/>
        <pt x="278" y="1366" on="0"/>
        <pt x="434" y="1368" on="1"/>
        <pt x="541" y="1364" on="1"/>
        <pt x="641" y="1366" on="1"/>
        <pt x="650" y="1366" on="0"/>
        <pt x="662" y="1354" on="0"/>
        <pt x="662" y="1346" on="1"/>
        <pt x="662" y="629" on="1"/>
        <pt x="662" y="584" on="0"/>
        <pt x="677" y="506" on="0"/>
        <pt x="691" y="473" on="0"/>
        <pt x="705" y="442" on="1"/>
        <pt x="749" y="352" on="0"/>
        <pt x="852" y="352" on="1"/>
        <pt x="905" y="352" on="0"/>
        <pt x="993" y="396" on="0"/>
        <pt x="1016" y="434" on="1"/>
        <pt x="1032" y="460" on="0"/>
        <pt x="1041" y="530" on="0"/>
        <pt x="1044" y="629" on="1"/>
        <pt x="1059" y="1343" on="1"/>
        <pt x="1059" y="1358" on="0"/>
        <pt x="1073" y="1358" on="1"/>
        <pt x="1493" y="1366" on="1"/>
        <pt x="1507" y="1366" on="0"/>
        <pt x="1507" y="1352" on="1"/>
        <pt x="1499" y="629" on="1"/>
        <pt x="1497" y="477" on="0"/>
        <pt x="1471" y="304" on="0"/>
        <pt x="1432" y="238" on="1"/>
        <pt x="1359" y="109" on="0"/>
        <pt x="1042" y="-31" on="0"/>
        <pt x="842" y="-31" on="1"/>
        <pt x="713" y="-31" on="0"/>
        <pt x="523" y="11" on="0"/>
        <pt x="442" y="66" on="1"/>
        <pt x="354" y="125" on="0"/>
        <pt x="262" y="257" on="0"/>
        <pt x="222" y="445" on="0"/>
        <pt x="219" y="602" on="1"/>
        <pt x="209" y="1094" on="1"/>
        <pt x="139" y="1096" on="1"/>
        <pt x="102" y="1094" on="1"/>
        <pt x="88" y="1094" on="0"/>
      </contour>
    </TTGlyph>
    <TTGlyph name="Uacute" xMin="88" yMin="-31" xMax="1507" yMax="1786">
      <contour>
        <pt x="88" y="1108" on="1"/>
        <pt x="90" y="1348" on="1"/>
        <pt x="90" y="1362" on="0"/>
        <pt x="104" y="1362" on="1"/>
        <pt x="188" y="1366" on="1"/>
        <pt x="278" y="1366" on="0"/>
        <pt x="434" y="1368" on="1"/>
        <pt x="541" y="1364" on="1"/>
        <pt x="641" y="1366" on="1"/>
        <pt x="650" y="1366" on="0"/>
        <pt x="662" y="1354" on="0"/>
        <pt x="662" y="1346" on="1"/>
        <pt x="662" y="629" on="1"/>
        <pt x="662" y="584" on="0"/>
        <pt x="677" y="506" on="0"/>
        <pt x="691" y="473" on="0"/>
        <pt x="705" y="442" on="1"/>
        <pt x="749" y="352" on="0"/>
        <pt x="852" y="352" on="1"/>
        <pt x="905" y="352" on="0"/>
        <pt x="993" y="396" on="0"/>
        <pt x="1016" y="434" on="1"/>
        <pt x="1032" y="460" on="0"/>
        <pt x="1041" y="530" on="0"/>
        <pt x="1044" y="629" on="1"/>
        <pt x="1059" y="1343" on="1"/>
        <pt x="1059" y="1358" on="0"/>
        <pt x="1073" y="1358" on="1"/>
        <pt x="1493" y="1366" on="1"/>
        <pt x="1507" y="1366" on="0"/>
        <pt x="1507" y="1352" on="1"/>
        <pt x="1499" y="629" on="1"/>
        <pt x="1497" y="478" on="0"/>
        <pt x="1471" y="304" on="0"/>
        <pt x="1432" y="238" on="1"/>
        <pt x="1359" y="109" on="0"/>
        <pt x="1042" y="-31" on="0"/>
        <pt x="842" y="-31" on="1"/>
        <pt x="713" y="-31" on="0"/>
        <pt x="523" y="11" on="0"/>
        <pt x="442" y="66" on="1"/>
        <pt x="354" y="125" on="0"/>
        <pt x="262" y="257" on="0"/>
        <pt x="222" y="445" on="0"/>
        <pt x="219" y="602" on="1"/>
        <pt x="209" y="1094" on="1"/>
        <pt x="139" y="1096" on="1"/>
        <pt x="102" y="1094" on="1"/>
        <pt x="88" y="1094" on="0"/>
      </contour>
      <contour>
        <pt x="662" y="1534" on="1"/>
        <pt x="844" y="1765" on="1"/>
        <pt x="858" y="1784" on="0"/>
        <pt x="887" y="1784" on="1"/>
        <pt x="1223" y="1786" on="1"/>
        <pt x="1238" y="1784" on="0"/>
        <pt x="1238" y="1770" on="0"/>
        <pt x="1231" y="1763" on="1"/>
        <pt x="956" y="1528" on="1"/>
        <pt x="936" y="1511" on="0"/>
        <pt x="915" y="1511" on="1"/>
        <pt x="670" y="1516" on="1"/>
        <pt x="650" y="1516" on="0"/>
      </contour>
    </TTGlyph>
    <TTGlyph name="Ucircumflex" xMin="88" yMin="-31" xMax="1507" yMax="1788">
      <contour>
        <pt x="88" y="1108" on="1"/>
        <pt x="90" y="1348" on="1"/>
        <pt x="90" y="1362" on="0"/>
        <pt x="104" y="1362" on="1"/>
        <pt x="188" y="1366" on="1"/>
        <pt x="278" y="1366" on="0"/>
        <pt x="434" y="1368" on="1"/>
        <pt x="541" y="1364" on="1"/>
        <pt x="641" y="1366" on="1"/>
        <pt x="650" y="1366" on="0"/>
        <pt x="662" y="1354" on="0"/>
        <pt x="662" y="1346" on="1"/>
        <pt x="662" y="629" on="1"/>
        <pt x="662" y="584" on="0"/>
        <pt x="677" y="506" on="0"/>
        <pt x="691" y="473" on="0"/>
        <pt x="705" y="442" on="1"/>
        <pt x="749" y="352" on="0"/>
        <pt x="852" y="352" on="1"/>
        <pt x="905" y="352" on="0"/>
        <pt x="993" y="396" on="0"/>
        <pt x="1016" y="434" on="1"/>
        <pt x="1032" y="460" on="0"/>
        <pt x="1041" y="530" on="0"/>
        <pt x="1044" y="629" on="1"/>
        <pt x="1059" y="1343" on="1"/>
        <pt x="1059" y="1358" on="0"/>
        <pt x="1073" y="1358" on="1"/>
        <pt x="1493" y="1366" on="1"/>
        <pt x="1507" y="1366" on="0"/>
        <pt x="1507" y="1352" on="1"/>
        <pt x="1499" y="629" on="1"/>
        <pt x="1497" y="478" on="0"/>
        <pt x="1471" y="304" on="0"/>
        <pt x="1432" y="238" on="1"/>
        <pt x="1359" y="109" on="0"/>
        <pt x="1042" y="-31" on="0"/>
        <pt x="842" y="-31" on="1"/>
        <pt x="713" y="-31" on="0"/>
        <pt x="523" y="11" on="0"/>
        <pt x="442" y="66" on="1"/>
        <pt x="354" y="125" on="0"/>
        <pt x="262" y="257" on="0"/>
        <pt x="222" y="445" on="0"/>
        <pt x="219" y="602" on="1"/>
        <pt x="209" y="1094" on="1"/>
        <pt x="139" y="1096" on="1"/>
        <pt x="102" y="1094" on="1"/>
        <pt x="88" y="1094" on="0"/>
      </contour>
      <contour>
        <pt x="452" y="1513" on="0"/>
        <pt x="448" y="1524" on="0"/>
        <pt x="455" y="1532" on="1"/>
        <pt x="674" y="1765" on="1"/>
        <pt x="693" y="1784" on="0"/>
        <pt x="717" y="1784" on="1"/>
        <pt x="823" y="1788" on="1"/>
        <pt x="997" y="1786" on="1"/>
        <pt x="1021" y="1786" on="0"/>
        <pt x="1040" y="1767" on="1"/>
        <pt x="1262" y="1532" on="1"/>
        <pt x="1269" y="1524" on="0"/>
        <pt x="1264" y="1513" on="0"/>
        <pt x="1253" y="1513" on="1"/>
        <pt x="1030" y="1509" on="1"/>
        <pt x="1009" y="1509" on="0"/>
        <pt x="989" y="1526" on="1"/>
        <pt x="856" y="1634" on="1"/>
        <pt x="727" y="1526" on="1"/>
        <pt x="707" y="1509" on="0"/>
        <pt x="686" y="1509" on="1"/>
        <pt x="463" y="1513" on="1"/>
      </contour>
    </TTGlyph>
    <TTGlyph name="Udieresis" xMin="88" yMin="-31" xMax="1507" yMax="1776">
      <contour>
        <pt x="88" y="1108" on="1"/>
        <pt x="90" y="1348" on="1"/>
        <pt x="90" y="1362" on="0"/>
        <pt x="104" y="1362" on="1"/>
        <pt x="188" y="1366" on="1"/>
        <pt x="278" y="1366" on="0"/>
        <pt x="434" y="1368" on="1"/>
        <pt x="541" y="1364" on="1"/>
        <pt x="641" y="1366" on="1"/>
        <pt x="650" y="1366" on="0"/>
        <pt x="662" y="1354" on="0"/>
        <pt x="662" y="1346" on="1"/>
        <pt x="662" y="629" on="1"/>
        <pt x="662" y="584" on="0"/>
        <pt x="677" y="506" on="0"/>
        <pt x="691" y="473" on="0"/>
        <pt x="705" y="442" on="1"/>
        <pt x="749" y="352" on="0"/>
        <pt x="852" y="352" on="1"/>
        <pt x="905" y="352" on="0"/>
        <pt x="993" y="396" on="0"/>
        <pt x="1016" y="434" on="1"/>
        <pt x="1032" y="460" on="0"/>
        <pt x="1041" y="530" on="0"/>
        <pt x="1044" y="629" on="1"/>
        <pt x="1059" y="1343" on="1"/>
        <pt x="1059" y="1358" on="0"/>
        <pt x="1073" y="1358" on="1"/>
        <pt x="1493" y="1366" on="1"/>
        <pt x="1507" y="1366" on="0"/>
        <pt x="1507" y="1352" on="1"/>
        <pt x="1499" y="629" on="1"/>
        <pt x="1497" y="477" on="0"/>
        <pt x="1471" y="304" on="0"/>
        <pt x="1432" y="238" on="1"/>
        <pt x="1359" y="109" on="0"/>
        <pt x="1042" y="-31" on="0"/>
        <pt x="842" y="-31" on="1"/>
        <pt x="713" y="-31" on="0"/>
        <pt x="523" y="11" on="0"/>
        <pt x="442" y="66" on="1"/>
        <pt x="354" y="125" on="0"/>
        <pt x="262" y="257" on="0"/>
        <pt x="222" y="445" on="0"/>
        <pt x="219" y="602" on="1"/>
        <pt x="209" y="1094" on="1"/>
        <pt x="139" y="1096" on="1"/>
        <pt x="102" y="1094" on="1"/>
        <pt x="88" y="1094" on="0"/>
      </contour>
      <contour>
        <pt x="498" y="1564" on="0"/>
        <pt x="498" y="1688" on="0"/>
        <pt x="586" y="1776" on="0"/>
        <pt x="708" y="1776" on="0"/>
        <pt x="797" y="1688" on="0"/>
        <pt x="797" y="1626" on="1"/>
        <pt x="797" y="1565" on="0"/>
        <pt x="709" y="1477" on="0"/>
        <pt x="647" y="1477" on="1"/>
        <pt x="586" y="1477" on="0"/>
      </contour>
      <contour>
        <pt x="909" y="1626" on="1"/>
        <pt x="909" y="1688" on="0"/>
        <pt x="998" y="1776" on="0"/>
        <pt x="1120" y="1776" on="0"/>
        <pt x="1208" y="1688" on="0"/>
        <pt x="1208" y="1564" on="0"/>
        <pt x="1120" y="1477" on="0"/>
        <pt x="1059" y="1477" on="1"/>
        <pt x="997" y="1477" on="0"/>
        <pt x="909" y="1565" on="0"/>
      </contour>
    </TTGlyph>
    <TTGlyph name="Ugrave" xMin="88" yMin="-31" xMax="1507" yMax="1786">
      <contour>
        <pt x="88" y="1108" on="1"/>
        <pt x="90" y="1348" on="1"/>
        <pt x="90" y="1362" on="0"/>
        <pt x="104" y="1362" on="1"/>
        <pt x="188" y="1366" on="1"/>
        <pt x="278" y="1366" on="0"/>
        <pt x="434" y="1368" on="1"/>
        <pt x="541" y="1364" on="1"/>
        <pt x="641" y="1366" on="1"/>
        <pt x="650" y="1366" on="0"/>
        <pt x="662" y="1354" on="0"/>
        <pt x="662" y="1346" on="1"/>
        <pt x="662" y="629" on="1"/>
        <pt x="662" y="584" on="0"/>
        <pt x="677" y="506" on="0"/>
        <pt x="691" y="473" on="0"/>
        <pt x="705" y="442" on="1"/>
        <pt x="749" y="352" on="0"/>
        <pt x="852" y="352" on="1"/>
        <pt x="905" y="352" on="0"/>
        <pt x="993" y="396" on="0"/>
        <pt x="1016" y="434" on="1"/>
        <pt x="1032" y="460" on="0"/>
        <pt x="1041" y="530" on="0"/>
        <pt x="1044" y="629" on="1"/>
        <pt x="1059" y="1343" on="1"/>
        <pt x="1059" y="1358" on="0"/>
        <pt x="1073" y="1358" on="1"/>
        <pt x="1493" y="1366" on="1"/>
        <pt x="1507" y="1366" on="0"/>
        <pt x="1507" y="1352" on="1"/>
        <pt x="1499" y="629" on="1"/>
        <pt x="1497" y="478" on="0"/>
        <pt x="1471" y="304" on="0"/>
        <pt x="1432" y="238" on="1"/>
        <pt x="1359" y="109" on="0"/>
        <pt x="1042" y="-31" on="0"/>
        <pt x="842" y="-31" on="1"/>
        <pt x="713" y="-31" on="0"/>
        <pt x="523" y="11" on="0"/>
        <pt x="442" y="66" on="1"/>
        <pt x="354" y="125" on="0"/>
        <pt x="262" y="257" on="0"/>
        <pt x="222" y="445" on="0"/>
        <pt x="219" y="602" on="1"/>
        <pt x="209" y="1094" on="1"/>
        <pt x="139" y="1096" on="1"/>
        <pt x="102" y="1094" on="1"/>
        <pt x="88" y="1094" on="0"/>
      </contour>
      <contour>
        <pt x="466" y="1766" on="0"/>
        <pt x="466" y="1780" on="0"/>
        <pt x="481" y="1782" on="1"/>
        <pt x="817" y="1786" on="1"/>
        <pt x="846" y="1786" on="0"/>
        <pt x="860" y="1767" on="1"/>
        <pt x="1042" y="1534" on="1"/>
        <pt x="1054" y="1516" on="0"/>
        <pt x="1034" y="1516" on="1"/>
        <pt x="788" y="1511" on="1"/>
        <pt x="768" y="1511" on="0"/>
        <pt x="748" y="1528" on="1"/>
        <pt x="473" y="1759" on="1"/>
      </contour>
    </TTGlyph>
    <TTGlyph name="V" xMin="-9" yMin="-32" xMax="1463" yMax="1374">
      <contour>
        <pt x="-9" y="1342" on="0"/>
        <pt x="-1" y="1360" on="0"/>
        <pt x="10" y="1360" on="1"/>
        <pt x="455" y="1374" on="1"/>
        <pt x="470" y="1374" on="0"/>
        <pt x="475" y="1362" on="1"/>
        <pt x="717" y="788" on="1"/>
        <pt x="991" y="1346" on="1"/>
        <pt x="997" y="1358" on="0"/>
        <pt x="1010" y="1358" on="1"/>
        <pt x="1442" y="1372" on="1"/>
        <pt x="1463" y="1372" on="0"/>
        <pt x="1454" y="1354" on="1"/>
        <pt x="752" y="-6" on="1"/>
        <pt x="738" y="-32" on="0"/>
        <pt x="696" y="-31" on="0"/>
        <pt x="682" y="-6" on="1"/>
        <pt x="393" y="514" on="1"/>
        <pt x="345" y="600" on="0"/>
        <pt x="146" y="1010" on="0"/>
        <pt x="71" y="1172" on="1"/>
        <pt x="-4" y="1335" on="1"/>
      </contour>
    </TTGlyph>
    <TTGlyph name="W" xMin="72" yMin="0" xMax="1866" yMax="1368">
      <contour>
        <pt x="72" y="1110" on="1"/>
        <pt x="74" y="1350" on="1"/>
        <pt x="74" y="1362" on="0"/>
        <pt x="88" y="1362" on="1"/>
        <pt x="127" y="1366" on="1"/>
        <pt x="197" y="1366" on="1"/>
        <pt x="618" y="1368" on="1"/>
        <pt x="633" y="1368" on="0"/>
        <pt x="633" y="1354" on="1"/>
        <pt x="635" y="829" on="1"/>
        <pt x="666" y="655" on="1"/>
        <pt x="668" y="646" on="0"/>
        <pt x="681" y="642" on="0"/>
        <pt x="686" y="651" on="1"/>
        <pt x="975" y="1130" on="1"/>
        <pt x="978" y="1136" on="0"/>
        <pt x="988" y="1136" on="0"/>
        <pt x="991" y="1130" on="1"/>
        <pt x="1266" y="662" on="1"/>
        <pt x="1271" y="653" on="0"/>
        <pt x="1286" y="657" on="0"/>
        <pt x="1288" y="668" on="1"/>
        <pt x="1315" y="1049" on="1"/>
        <pt x="1313" y="1350" on="1"/>
        <pt x="1313" y="1364" on="0"/>
        <pt x="1327" y="1364" on="1"/>
        <pt x="1452" y="1364" on="1"/>
        <pt x="1468" y="1368" on="1"/>
        <pt x="1812" y="1368" on="1"/>
        <pt x="1851" y="1368" on="1"/>
        <pt x="1866" y="1368" on="0"/>
        <pt x="1866" y="1352" on="1"/>
        <pt x="1864" y="1110" on="1"/>
        <pt x="1864" y="1096" on="0"/>
        <pt x="1849" y="1096" on="1"/>
        <pt x="1763" y="1092" on="1"/>
        <pt x="1743" y="1092" on="1"/>
        <pt x="1741" y="1026" on="1"/>
        <pt x="1706" y="422" on="1"/>
        <pt x="1661" y="14" on="1"/>
        <pt x="1661" y="0" on="0"/>
        <pt x="1645" y="0" on="1"/>
        <pt x="1257" y="0" on="1"/>
        <pt x="1242" y="0" on="0"/>
        <pt x="1235" y="14" on="1"/>
        <pt x="985" y="451" on="1"/>
        <pt x="739" y="14" on="1"/>
        <pt x="732" y="0" on="0"/>
        <pt x="717" y="0" on="1"/>
        <pt x="291" y="0" on="1"/>
        <pt x="276" y="0" on="0"/>
        <pt x="276" y="14" on="1"/>
        <pt x="215" y="745" on="1"/>
        <pt x="193" y="1096" on="1"/>
        <pt x="123" y="1096" on="1"/>
        <pt x="86" y="1096" on="1"/>
        <pt x="72" y="1096" on="0"/>
      </contour>
    </TTGlyph>
    <TTGlyph name="X" xMin="-18" yMin="-25" xMax="1552" yMax="1388">
      <contour>
        <pt x="-6" y="1317" on="1"/>
        <pt x="-18" y="1329" on="0"/>
        <pt x="0" y="1331" on="1"/>
        <pt x="504" y="1386" on="1"/>
        <pt x="518" y="1388" on="0"/>
        <pt x="526" y="1378" on="1"/>
        <pt x="784" y="1047" on="1"/>
        <pt x="1006" y="1348" on="1"/>
        <pt x="1014" y="1361" on="0"/>
        <pt x="1030" y="1358" on="1"/>
        <pt x="1520" y="1309" on="1"/>
        <pt x="1534" y="1306" on="0"/>
        <pt x="1524" y="1296" on="1"/>
        <pt x="1028" y="698" on="1"/>
        <pt x="1013" y="681" on="0"/>
        <pt x="1028" y="666" on="1"/>
        <pt x="1546" y="49" on="1"/>
        <pt x="1552" y="42" on="0"/>
        <pt x="1546" y="33" on="0"/>
        <pt x="1540" y="33" on="1"/>
        <pt x="1012" y="-23" on="1"/>
        <pt x="990" y="-25" on="0"/>
        <pt x="983" y="-12" on="1"/>
        <pt x="764" y="309" on="1"/>
        <pt x="549" y="-8" on="1"/>
        <pt x="540" y="-17" on="0"/>
        <pt x="530" y="-14" on="1"/>
        <pt x="37" y="63" on="1"/>
        <pt x="16" y="66" on="0"/>
        <pt x="33" y="86" on="1"/>
        <pt x="473" y="649" on="1"/>
        <pt x="486" y="664" on="0"/>
        <pt x="475" y="682" on="1"/>
        <pt x="264" y="993" on="1"/>
      </contour>
    </TTGlyph>
    <TTGlyph name="Y" xMin="-14" yMin="0" xMax="1468" yMax="1381">
      <contour>
        <pt x="4" y="1319" on="1"/>
        <pt x="-14" y="1345" on="0"/>
        <pt x="23" y="1348" on="1"/>
        <pt x="451" y="1376" on="1"/>
        <pt x="476" y="1377" on="0"/>
        <pt x="494" y="1369" on="0"/>
        <pt x="502" y="1356" on="1"/>
        <pt x="756" y="979" on="1"/>
        <pt x="979" y="1362" on="1"/>
        <pt x="990" y="1381" on="0"/>
        <pt x="1014" y="1378" on="1"/>
        <pt x="1440" y="1354" on="1"/>
        <pt x="1468" y="1350" on="0"/>
        <pt x="1452" y="1327" on="1"/>
        <pt x="997" y="631" on="1"/>
        <pt x="989" y="620" on="0"/>
        <pt x="989" y="573" on="1"/>
        <pt x="989" y="23" on="1"/>
        <pt x="989" y="8" on="0"/>
        <pt x="975" y="8" on="1"/>
        <pt x="524" y="0" on="1"/>
        <pt x="510" y="0" on="0"/>
        <pt x="510" y="14" on="1"/>
        <pt x="510" y="594" on="1"/>
        <pt x="510" y="614" on="0"/>
        <pt x="498" y="629" on="1"/>
      </contour>
    </TTGlyph>
    <TTGlyph name="Z" xMin="7" yMin="-12" xMax="1298" yMax="1378">
      <contour>
        <pt x="25" y="31" on="1"/>
        <pt x="188" y="287" on="1"/>
        <pt x="659" y="1008" on="1"/>
        <pt x="362" y="1008" on="1"/>
        <pt x="362" y="952" on="1"/>
        <pt x="362" y="915" on="1"/>
        <pt x="362" y="901" on="0"/>
        <pt x="348" y="901" on="1"/>
        <pt x="98" y="903" on="1"/>
        <pt x="84" y="903" on="0"/>
        <pt x="84" y="918" on="1"/>
        <pt x="88" y="1042" on="1"/>
        <pt x="88" y="1155" on="1"/>
        <pt x="88" y="1272" on="1"/>
        <pt x="82" y="1364" on="1"/>
        <pt x="82" y="1378" on="0"/>
        <pt x="96" y="1378" on="1"/>
        <pt x="256" y="1370" on="1"/>
        <pt x="1237" y="1356" on="1"/>
        <pt x="1251" y="1356" on="0"/>
        <pt x="1251" y="1341" on="1"/>
        <pt x="1251" y="1092" on="1"/>
        <pt x="1251" y="1077" on="0"/>
        <pt x="1245" y="1071" on="1"/>
        <pt x="748" y="352" on="1"/>
        <pt x="1276" y="352" on="1"/>
        <pt x="1292" y="352" on="0"/>
        <pt x="1298" y="338" on="0"/>
        <pt x="1292" y="328" on="1"/>
        <pt x="1171" y="4" on="1"/>
        <pt x="1165" y="-12" on="0"/>
        <pt x="1141" y="-12" on="1"/>
        <pt x="436" y="10" on="1"/>
        <pt x="41" y="4" on="1"/>
        <pt x="7" y="4" on="0"/>
      </contour>
    </TTGlyph>
    <TTGlyph name="ampersand" xMin="88" yMin="-31" xMax="1500" yMax="1395">
      <contour>
        <pt x="88" y="449" on="1"/>
        <pt x="88" y="617" on="0"/>
        <pt x="186" y="729" on="1"/>
        <pt x="217" y="767" on="0"/>
        <pt x="349" y="863" on="0"/>
        <pt x="403" y="889" on="1"/>
        <pt x="332" y="1040" on="0"/>
        <pt x="332" y="1120" on="1"/>
        <pt x="332" y="1249" on="0"/>
        <pt x="540" y="1395" on="0"/>
        <pt x="723" y="1395" on="1"/>
        <pt x="777" y="1395" on="0"/>
        <pt x="906" y="1372" on="0"/>
        <pt x="944" y="1361" on="1"/>
        <pt x="981" y="1350" on="1"/>
        <pt x="992" y="1346" on="0"/>
        <pt x="994" y="1332" on="1"/>
        <pt x="995" y="1330" on="0"/>
        <pt x="995" y="1329" on="1"/>
        <pt x="1036" y="1036" on="1"/>
        <pt x="1037" y="1025" on="0"/>
        <pt x="1028" y="1023" on="0"/>
        <pt x="1022" y="1026" on="1"/>
        <pt x="924" y="1075" on="0"/>
        <pt x="877" y="1075" on="1"/>
        <pt x="778" y="1075" on="0"/>
        <pt x="778" y="1008" on="1"/>
        <pt x="778" y="1002" on="0"/>
        <pt x="782" y="986" on="0"/>
        <pt x="792" y="965" on="0"/>
        <pt x="802" y="947" on="0"/>
        <pt x="819" y="919" on="0"/>
        <pt x="831" y="899" on="0"/>
        <pt x="854" y="866" on="0"/>
        <pt x="866" y="849" on="0"/>
        <pt x="892" y="812" on="0"/>
        <pt x="897" y="805" on="1"/>
        <pt x="1022" y="631" on="1"/>
        <pt x="1360" y="639" on="1"/>
        <pt x="1373" y="639" on="0"/>
        <pt x="1379" y="635" on="0"/>
        <pt x="1374" y="623" on="1"/>
        <pt x="1366" y="602" on="0"/>
        <pt x="1338" y="536" on="0"/>
        <pt x="1261" y="392" on="0"/>
        <pt x="1227" y="356" on="1"/>
        <pt x="1384" y="135" on="1"/>
        <pt x="1485" y="28" on="0"/>
        <pt x="1495" y="16" on="1"/>
        <pt x="1500" y="10" on="0"/>
        <pt x="1496" y="2" on="0"/>
        <pt x="1491" y="2" on="1"/>
        <pt x="1042" y="-6" on="1"/>
        <pt x="1019" y="-6" on="0"/>
        <pt x="1003" y="-1" on="0"/>
        <pt x="997" y="8" on="1"/>
        <pt x="936" y="88" on="1"/>
        <pt x="774" y="-31" on="0"/>
        <pt x="584" y="-31" on="1"/>
        <pt x="363" y="-31" on="0"/>
        <pt x="88" y="232" on="0"/>
      </contour>
      <contour>
        <pt x="471" y="483" on="1"/>
        <pt x="484" y="418" on="0"/>
        <pt x="553" y="338" on="0"/>
        <pt x="606" y="338" on="1"/>
        <pt x="656" y="338" on="0"/>
        <pt x="723" y="381" on="1"/>
        <pt x="569" y="618" on="1"/>
        <pt x="530" y="590" on="0"/>
        <pt x="466" y="513" on="0"/>
      </contour>
    </TTGlyph>
    <TTGlyph name="at" xMin="68" yMin="-31" xMax="1386" yMax="1395">
      <contour>
        <pt x="68" y="666" on="1"/>
        <pt x="68" y="872" on="0"/>
        <pt x="252" y="1206" on="0"/>
        <pt x="575" y="1395" on="0"/>
        <pt x="774" y="1395" on="1"/>
        <pt x="952" y="1395" on="0"/>
        <pt x="1231" y="1254" on="0"/>
        <pt x="1386" y="996" on="0"/>
        <pt x="1386" y="829" on="1"/>
        <pt x="1386" y="616" on="0"/>
        <pt x="1177" y="371" on="0"/>
        <pt x="999" y="371" on="1"/>
        <pt x="892" y="371" on="0"/>
        <pt x="813" y="457" on="1"/>
        <pt x="778" y="420" on="0"/>
        <pt x="680" y="377" on="0"/>
        <pt x="633" y="377" on="1"/>
        <pt x="537" y="377" on="0"/>
        <pt x="424" y="549" on="0"/>
        <pt x="432" y="670" on="1"/>
        <pt x="443" y="816" on="0"/>
        <pt x="570" y="997" on="0"/>
        <pt x="678" y="997" on="1"/>
        <pt x="744" y="997" on="0"/>
        <pt x="811" y="930" on="1"/>
        <pt x="821" y="973" on="1"/>
        <pt x="823" y="987" on="0"/>
        <pt x="840" y="987" on="1"/>
        <pt x="1008" y="983" on="1"/>
        <pt x="1025" y="980" on="0"/>
        <pt x="1022" y="965" on="1"/>
        <pt x="981" y="774" on="1"/>
        <pt x="969" y="596" on="1"/>
        <pt x="968" y="574" on="0"/>
        <pt x="1000" y="559" on="0"/>
        <pt x="1034" y="559" on="1"/>
        <pt x="1102" y="559" on="0"/>
        <pt x="1206" y="710" on="0"/>
        <pt x="1206" y="825" on="1"/>
        <pt x="1206" y="993" on="0"/>
        <pt x="965" y="1214" on="0"/>
        <pt x="778" y="1214" on="1"/>
        <pt x="631" y="1214" on="0"/>
        <pt x="392" y="1070" on="0"/>
        <pt x="260" y="824" on="0"/>
        <pt x="260" y="676" on="1"/>
        <pt x="260" y="534" on="0"/>
        <pt x="389" y="297" on="0"/>
        <pt x="611" y="162" on="0"/>
        <pt x="743" y="162" on="1"/>
        <pt x="803" y="162" on="0"/>
        <pt x="878" y="167" on="0"/>
        <pt x="987" y="187" on="0"/>
        <pt x="1093" y="235" on="0"/>
        <pt x="1149" y="274" on="1"/>
        <pt x="1152" y="276" on="0"/>
        <pt x="1165" y="288" on="0"/>
        <pt x="1170" y="291" on="0"/>
        <pt x="1180" y="294" on="0"/>
        <pt x="1189" y="288" on="0"/>
        <pt x="1194" y="281" on="1"/>
        <pt x="1276" y="172" on="1"/>
        <pt x="1281" y="166" on="0"/>
        <pt x="1283" y="156" on="0"/>
        <pt x="1284" y="149" on="0"/>
        <pt x="1274" y="138" on="0"/>
        <pt x="1270" y="134" on="0"/>
        <pt x="1262" y="127" on="1"/>
        <pt x="1150" y="36" on="0"/>
        <pt x="890" y="-31" on="0"/>
        <pt x="733" y="-31" on="1"/>
        <pt x="597" y="-31" on="0"/>
        <pt x="351" y="78" on="0"/>
        <pt x="173" y="264" on="0"/>
        <pt x="68" y="523" on="0"/>
      </contour>
      <contour>
        <pt x="623" y="680" on="1"/>
        <pt x="616" y="618" on="0"/>
        <pt x="656" y="563" on="0"/>
        <pt x="684" y="563" on="1"/>
        <pt x="731" y="563" on="0"/>
        <pt x="766" y="598" on="1"/>
        <pt x="786" y="791" on="1"/>
        <pt x="780" y="797" on="0"/>
        <pt x="732" y="813" on="0"/>
        <pt x="721" y="813" on="1"/>
        <pt x="679" y="813" on="0"/>
        <pt x="630" y="753" on="0"/>
      </contour>
    </TTGlyph>
    <TTGlyph name="backslash" xMin="-128" yMin="-31" xMax="899" yMax="1395">
      <contour>
        <pt x="-125" y="1380" on="1"/>
        <pt x="-128" y="1386" on="0"/>
        <pt x="-119" y="1395" on="0"/>
        <pt x="-113" y="1395" on="1"/>
        <pt x="193" y="1395" on="1"/>
        <pt x="208" y="1395" on="0"/>
        <pt x="215" y="1380" on="1"/>
        <pt x="520" y="756" on="1"/>
        <pt x="891" y="-12" on="1"/>
        <pt x="899" y="-31" on="0"/>
        <pt x="885" y="-31" on="1"/>
        <pt x="586" y="-31" on="1"/>
        <pt x="563" y="-31" on="0"/>
        <pt x="557" y="-16" on="1"/>
        <pt x="181" y="756" on="0"/>
      </contour>
    </TTGlyph>
    <TTGlyph name="bar" xMin="180" yMin="-33" xMax="487" yMax="1397">
      <contour>
        <pt x="180" y="209" on="1"/>
        <pt x="184" y="1378" on="1"/>
        <pt x="184" y="1384" on="0"/>
        <pt x="193" y="1393" on="0"/>
        <pt x="199" y="1393" on="1"/>
        <pt x="473" y="1397" on="1"/>
        <pt x="487" y="1397" on="0"/>
        <pt x="487" y="1382" on="1"/>
        <pt x="483" y="1253" on="1"/>
        <pt x="487" y="-12" on="1"/>
        <pt x="487" y="-27" on="0"/>
        <pt x="473" y="-27" on="1"/>
        <pt x="297" y="-33" on="1"/>
        <pt x="205" y="-27" on="1"/>
        <pt x="199" y="-27" on="0"/>
        <pt x="190" y="-18" on="0"/>
        <pt x="190" y="-12" on="1"/>
      </contour>
    </TTGlyph>
    <TTGlyph name="bracketleft" xMin="47" yMin="-35" xMax="625" yMax="1399">
      <contour>
        <pt x="47" y="-14" on="1"/>
        <pt x="49" y="1386" on="1"/>
        <pt x="49" y="1399" on="0"/>
        <pt x="63" y="1399" on="1"/>
        <pt x="610" y="1393" on="1"/>
        <pt x="625" y="1393" on="0"/>
        <pt x="625" y="1378" on="1"/>
        <pt x="623" y="1178" on="1"/>
        <pt x="623" y="1163" on="0"/>
        <pt x="608" y="1163" on="1"/>
        <pt x="336" y="1163" on="1"/>
        <pt x="342" y="203" on="1"/>
        <pt x="606" y="205" on="1"/>
        <pt x="621" y="205" on="0"/>
        <pt x="621" y="190" on="1"/>
        <pt x="625" y="-18" on="1"/>
        <pt x="625" y="-35" on="0"/>
        <pt x="608" y="-35" on="1"/>
        <pt x="59" y="-31" on="1"/>
        <pt x="47" y="-31" on="0"/>
      </contour>
    </TTGlyph>
    <TTGlyph name="bracketright" xMin="47" yMin="-35" xMax="625" yMax="1399">
      <contour>
        <pt x="47" y="-18" on="1"/>
        <pt x="51" y="190" on="1"/>
        <pt x="51" y="205" on="0"/>
        <pt x="66" y="205" on="1"/>
        <pt x="330" y="203" on="1"/>
        <pt x="336" y="1163" on="1"/>
        <pt x="63" y="1163" on="1"/>
        <pt x="49" y="1163" on="0"/>
        <pt x="49" y="1178" on="1"/>
        <pt x="47" y="1378" on="1"/>
        <pt x="47" y="1393" on="0"/>
        <pt x="61" y="1393" on="1"/>
        <pt x="608" y="1399" on="1"/>
        <pt x="623" y="1399" on="0"/>
        <pt x="623" y="1386" on="1"/>
        <pt x="625" y="-14" on="1"/>
        <pt x="625" y="-31" on="0"/>
        <pt x="612" y="-31" on="1"/>
        <pt x="63" y="-35" on="1"/>
        <pt x="47" y="-35" on="0"/>
      </contour>
    </TTGlyph>
    <TTGlyph name="bullet" xMin="106" yMin="369" xMax="713" yMax="991">
      <contour>
        <pt x="106" y="965" on="1"/>
        <pt x="106" y="977" on="0"/>
        <pt x="123" y="989" on="0"/>
        <pt x="131" y="989" on="1"/>
        <pt x="553" y="987" on="1"/>
        <pt x="684" y="991" on="1"/>
        <pt x="711" y="991" on="0"/>
        <pt x="711" y="963" on="1"/>
        <pt x="713" y="383" on="1"/>
        <pt x="713" y="369" on="0"/>
        <pt x="698" y="369" on="1"/>
        <pt x="123" y="375" on="1"/>
        <pt x="109" y="375" on="0"/>
        <pt x="109" y="389" on="1"/>
        <pt x="113" y="498" on="1"/>
      </contour>
    </TTGlyph>
    <TTGlyph name="colon" xMin="98" yMin="-2" xMax="514" yMax="991">
      <contour>
        <pt x="98" y="12" on="1"/>
        <pt x="104" y="383" on="1"/>
        <pt x="104" y="397" on="0"/>
        <pt x="119" y="397" on="1"/>
        <pt x="227" y="393" on="1"/>
        <pt x="487" y="399" on="1"/>
        <pt x="499" y="399" on="0"/>
        <pt x="512" y="383" on="0"/>
        <pt x="512" y="375" on="1"/>
        <pt x="514" y="27" on="1"/>
        <pt x="514" y="0" on="0"/>
        <pt x="485" y="0" on="1"/>
        <pt x="113" y="-2" on="1"/>
        <pt x="98" y="-2" on="0"/>
      </contour>
      <contour>
        <pt x="106" y="963" on="1"/>
        <pt x="105" y="975" on="0"/>
        <pt x="121" y="987" on="0"/>
        <pt x="131" y="987" on="1"/>
        <pt x="479" y="991" on="1"/>
        <pt x="506" y="991" on="0"/>
        <pt x="506" y="961" on="1"/>
        <pt x="508" y="588" on="1"/>
        <pt x="508" y="573" on="0"/>
        <pt x="494" y="573" on="1"/>
        <pt x="123" y="580" on="1"/>
        <pt x="107" y="584" on="0"/>
        <pt x="109" y="594" on="1"/>
        <pt x="111" y="702" on="1"/>
      </contour>
    </TTGlyph>
    <TTGlyph name="comma" xMin="98" yMin="-319" xMax="524" yMax="399">
      <contour>
        <pt x="98" y="12" on="1"/>
        <pt x="104" y="383" on="1"/>
        <pt x="104" y="397" on="0"/>
        <pt x="119" y="397" on="1"/>
        <pt x="248" y="393" on="1"/>
        <pt x="487" y="399" on="1"/>
        <pt x="499" y="399" on="0"/>
        <pt x="512" y="383" on="0"/>
        <pt x="512" y="375" on="1"/>
        <pt x="524" y="23" on="1"/>
        <pt x="408" y="-305" on="1"/>
        <pt x="404" y="-319" on="0"/>
        <pt x="389" y="-319" on="1"/>
        <pt x="166" y="-317" on="1"/>
        <pt x="158" y="-317" on="0"/>
        <pt x="148" y="-308" on="0"/>
        <pt x="152" y="-301" on="1"/>
        <pt x="330" y="10" on="1"/>
        <pt x="127" y="-2" on="0"/>
        <pt x="113" y="-2" on="1"/>
        <pt x="98" y="-2" on="0"/>
      </contour>
    </TTGlyph>
    <TTGlyph name="copyright" xMin="68" yMin="-31" xMax="1487" yMax="1395">
      <contour>
        <pt x="68" y="682" on="1"/>
        <pt x="68" y="878" on="0"/>
        <pt x="255" y="1205" on="0"/>
        <pt x="581" y="1395" on="0"/>
        <pt x="776" y="1395" on="1"/>
        <pt x="921" y="1395" on="0"/>
        <pt x="1184" y="1281" on="0"/>
        <pt x="1374" y="1090" on="0"/>
        <pt x="1487" y="826" on="0"/>
        <pt x="1487" y="682" on="1"/>
        <pt x="1487" y="536" on="0"/>
        <pt x="1374" y="272" on="0"/>
        <pt x="1184" y="82" on="0"/>
        <pt x="921" y="-31" on="0"/>
        <pt x="776" y="-31" on="1"/>
        <pt x="569" y="-31" on="0"/>
        <pt x="244" y="159" on="0"/>
        <pt x="68" y="483" on="0"/>
      </contour>
      <contour>
        <pt x="260" y="680" on="1"/>
        <pt x="260" y="459" on="0"/>
        <pt x="555" y="162" on="0"/>
        <pt x="997" y="162" on="0"/>
        <pt x="1294" y="460" on="0"/>
        <pt x="1294" y="680" on="1"/>
        <pt x="1294" y="826" on="0"/>
        <pt x="1159" y="1071" on="0"/>
        <pt x="921" y="1214" on="0"/>
        <pt x="776" y="1214" on="1"/>
        <pt x="632" y="1214" on="0"/>
        <pt x="395" y="1072" on="0"/>
        <pt x="260" y="827" on="0"/>
      </contour>
      <contour>
        <pt x="500" y="686" on="1"/>
        <pt x="500" y="819" on="0"/>
        <pt x="670" y="993" on="0"/>
        <pt x="809" y="993" on="1"/>
        <pt x="889" y="993" on="0"/>
        <pt x="963" y="965" on="1"/>
        <pt x="973" y="965" on="0"/>
        <pt x="973" y="950" on="1"/>
        <pt x="967" y="807" on="1"/>
        <pt x="967" y="802" on="0"/>
        <pt x="964" y="796" on="0"/>
        <pt x="958" y="794" on="0"/>
        <pt x="953" y="794" on="0"/>
        <pt x="950" y="794" on="1"/>
        <pt x="948" y="795" on="1"/>
        <pt x="911" y="813" on="0"/>
        <pt x="840" y="813" on="1"/>
        <pt x="784" y="813" on="0"/>
        <pt x="707" y="740" on="0"/>
        <pt x="707" y="690" on="1"/>
        <pt x="707" y="639" on="0"/>
        <pt x="792" y="563" on="0"/>
        <pt x="854" y="563" on="1"/>
        <pt x="878" y="563" on="0"/>
        <pt x="956" y="588" on="1"/>
        <pt x="965" y="591" on="0"/>
        <pt x="977" y="583" on="0"/>
        <pt x="977" y="575" on="1"/>
        <pt x="975" y="557" on="0"/>
        <pt x="975" y="522" on="1"/>
        <pt x="974" y="512" on="1"/>
        <pt x="973" y="501" on="0"/>
        <pt x="973" y="459" on="0"/>
        <pt x="975" y="428" on="1"/>
        <pt x="975" y="417" on="0"/>
        <pt x="965" y="412" on="1"/>
        <pt x="852" y="377" on="0"/>
        <pt x="811" y="377" on="1"/>
        <pt x="673" y="377" on="0"/>
        <pt x="500" y="554" on="0"/>
      </contour>
    </TTGlyph>
    <TTGlyph name="currency" xMin="317" yMin="264" xMax="1155" yMax="1102">
      <contour>
        <pt x="317" y="352" on="1"/>
        <pt x="422" y="455" on="1"/>
        <pt x="381" y="518" on="0"/>
        <pt x="346" y="622" on="0"/>
        <pt x="346" y="682" on="1"/>
        <pt x="346" y="744" on="0"/>
        <pt x="382" y="848" on="0"/>
        <pt x="424" y="909" on="1"/>
        <pt x="319" y="1014" on="1"/>
        <pt x="406" y="1102" on="1"/>
        <pt x="510" y="997" on="1"/>
        <pt x="622" y="1073" on="0"/>
        <pt x="735" y="1073" on="1"/>
        <pt x="850" y="1073" on="0"/>
        <pt x="963" y="995" on="1"/>
        <pt x="1067" y="1100" on="1"/>
        <pt x="1155" y="1014" on="1"/>
        <pt x="1051" y="909" on="1"/>
        <pt x="1126" y="801" on="0"/>
        <pt x="1126" y="682" on="1"/>
        <pt x="1126" y="567" on="0"/>
        <pt x="1051" y="457" on="1"/>
        <pt x="1155" y="352" on="1"/>
        <pt x="1067" y="264" on="1"/>
        <pt x="965" y="369" on="1"/>
        <pt x="853" y="293" on="0"/>
        <pt x="735" y="293" on="1"/>
        <pt x="674" y="293" on="0"/>
        <pt x="571" y="329" on="0"/>
        <pt x="510" y="369" on="1"/>
        <pt x="406" y="264" on="1"/>
      </contour>
      <contour>
        <pt x="539" y="680" on="1"/>
        <pt x="539" y="601" on="0"/>
        <pt x="655" y="485" on="0"/>
        <pt x="735" y="485" on="1"/>
        <pt x="818" y="485" on="0"/>
        <pt x="934" y="600" on="0"/>
        <pt x="934" y="682" on="1"/>
        <pt x="934" y="765" on="0"/>
        <pt x="818" y="881" on="0"/>
        <pt x="733" y="881" on="1"/>
        <pt x="710" y="881" on="0"/>
        <pt x="686" y="874" on="1"/>
        <pt x="620" y="855" on="0"/>
        <pt x="539" y="749" on="0"/>
      </contour>
    </TTGlyph>
    <TTGlyph name="eight" xMin="68" yMin="-31" xMax="1038" yMax="1395">
      <contour>
        <pt x="68" y="389" on="1"/>
        <pt x="68" y="498" on="0"/>
        <pt x="150" y="656" on="0"/>
        <pt x="229" y="694" on="1"/>
        <pt x="181" y="729" on="0"/>
        <pt x="150" y="774" on="1"/>
        <pt x="84" y="859" on="0"/>
        <pt x="84" y="973" on="1"/>
        <pt x="84" y="1155" on="0"/>
        <pt x="356" y="1395" on="0"/>
        <pt x="561" y="1395" on="1"/>
        <pt x="767" y="1395" on="0"/>
        <pt x="1018" y="1181" on="0"/>
        <pt x="1018" y="997" on="1"/>
        <pt x="1018" y="792" on="0"/>
        <pt x="885" y="705" on="1"/>
        <pt x="956" y="672" on="0"/>
        <pt x="1038" y="508" on="0"/>
        <pt x="1038" y="403" on="1"/>
        <pt x="1038" y="207" on="0"/>
        <pt x="770" y="-31" on="0"/>
        <pt x="549" y="-31" on="1"/>
        <pt x="329" y="-31" on="0"/>
        <pt x="68" y="197" on="0"/>
      </contour>
      <contour>
        <pt x="444" y="973" on="1"/>
        <pt x="446" y="913" on="0"/>
        <pt x="502" y="843" on="0"/>
        <pt x="549" y="844" on="1"/>
        <pt x="593" y="844" on="0"/>
        <pt x="647" y="917" on="0"/>
        <pt x="647" y="977" on="1"/>
        <pt x="647" y="1032" on="0"/>
        <pt x="590" y="1104" on="0"/>
        <pt x="547" y="1102" on="1"/>
        <pt x="501" y="1102" on="0"/>
        <pt x="444" y="1031" on="0"/>
      </contour>
      <contour>
        <pt x="446" y="426" on="1"/>
        <pt x="446" y="362" on="0"/>
        <pt x="503" y="285" on="0"/>
        <pt x="549" y="285" on="1"/>
        <pt x="598" y="284" on="0"/>
        <pt x="657" y="361" on="0"/>
        <pt x="659" y="426" on="1"/>
        <pt x="659" y="493" on="0"/>
        <pt x="601" y="573" on="0"/>
        <pt x="553" y="575" on="1"/>
        <pt x="505" y="575" on="0"/>
        <pt x="446" y="493" on="0"/>
      </contour>
    </TTGlyph>
    <TTGlyph name="ellipsis" xMin="98" yMin="-10" xMax="1745" yMax="406">
      <contour>
        <pt x="98" y="12" on="1"/>
        <pt x="104" y="383" on="1"/>
        <pt x="104" y="397" on="0"/>
        <pt x="119" y="397" on="1"/>
        <pt x="227" y="393" on="1"/>
        <pt x="489" y="399" on="1"/>
        <pt x="501" y="399" on="0"/>
        <pt x="514" y="383" on="0"/>
        <pt x="514" y="375" on="1"/>
        <pt x="516" y="27" on="1"/>
        <pt x="516" y="0" on="0"/>
        <pt x="487" y="0" on="1"/>
        <pt x="113" y="-2" on="1"/>
        <pt x="98" y="-2" on="0"/>
      </contour>
      <contour>
        <pt x="719" y="381" on="1"/>
        <pt x="719" y="393" on="0"/>
        <pt x="735" y="406" on="0"/>
        <pt x="743" y="406" on="1"/>
        <pt x="1094" y="406" on="1"/>
        <pt x="1120" y="406" on="0"/>
        <pt x="1120" y="377" on="1"/>
        <pt x="1122" y="4" on="1"/>
        <pt x="1122" y="-10" on="0"/>
        <pt x="1108" y="-10" on="1"/>
        <pt x="737" y="-4" on="1"/>
        <pt x="723" y="-4" on="0"/>
        <pt x="723" y="10" on="1"/>
        <pt x="727" y="119" on="1"/>
      </contour>
      <contour>
        <pt x="1327" y="371" on="1"/>
        <pt x="1327" y="397" on="0"/>
        <pt x="1356" y="397" on="1"/>
        <pt x="1731" y="399" on="1"/>
        <pt x="1745" y="399" on="0"/>
        <pt x="1745" y="385" on="1"/>
        <pt x="1739" y="12" on="1"/>
        <pt x="1739" y="-2" on="0"/>
        <pt x="1724" y="-2" on="1"/>
        <pt x="1444" y="-6" on="1"/>
        <pt x="1354" y="-2" on="1"/>
        <pt x="1342" y="-2" on="0"/>
        <pt x="1329" y="15" on="0"/>
        <pt x="1329" y="23" on="1"/>
      </contour>
    </TTGlyph>
    <TTGlyph name="emdash" xMin="104" yMin="510" xMax="1322" yMax="846">
      <contour>
        <pt x="104" y="829" on="1"/>
        <pt x="104" y="844" on="0"/>
        <pt x="119" y="844" on="1"/>
        <pt x="1305" y="846" on="1"/>
        <pt x="1311" y="846" on="0"/>
        <pt x="1320" y="837" on="0"/>
        <pt x="1319" y="831" on="1"/>
        <pt x="1317" y="719" on="1"/>
        <pt x="1321" y="537" on="1"/>
        <pt x="1322" y="525" on="0"/>
        <pt x="1305" y="512" on="0"/>
        <pt x="1296" y="512" on="1"/>
        <pt x="133" y="510" on="1"/>
        <pt x="106" y="510" on="0"/>
        <pt x="106" y="539" on="1"/>
      </contour>
    </TTGlyph>
    <TTGlyph name="endash" xMin="104" yMin="510" xMax="826" yMax="846">
      <contour>
        <pt x="104" y="829" on="1"/>
        <pt x="104" y="844" on="0"/>
        <pt x="119" y="844" on="1"/>
        <pt x="809" y="846" on="1"/>
        <pt x="815" y="846" on="0"/>
        <pt x="824" y="837" on="0"/>
        <pt x="823" y="831" on="1"/>
        <pt x="821" y="719" on="1"/>
        <pt x="825" y="537" on="1"/>
        <pt x="826" y="525" on="0"/>
        <pt x="810" y="512" on="0"/>
        <pt x="801" y="512" on="1"/>
        <pt x="133" y="510" on="1"/>
        <pt x="106" y="510" on="0"/>
        <pt x="106" y="539" on="1"/>
      </contour>
    </TTGlyph>
    <TTGlyph name="exclam" xMin="127" yMin="-2" xMax="569" yMax="1368">
      <contour>
        <pt x="127" y="1346" on="1"/>
        <pt x="127" y="1360" on="0"/>
        <pt x="141" y="1360" on="1"/>
        <pt x="358" y="1368" on="1"/>
        <pt x="555" y="1360" on="1"/>
        <pt x="569" y="1360" on="0"/>
        <pt x="569" y="1346" on="1"/>
        <pt x="545" y="801" on="1"/>
        <pt x="547" y="590" on="1"/>
        <pt x="547" y="584" on="0"/>
        <pt x="538" y="575" on="0"/>
        <pt x="532" y="575" on="1"/>
        <pt x="324" y="578" on="1"/>
        <pt x="172" y="575" on="1"/>
        <pt x="158" y="575" on="0"/>
        <pt x="158" y="590" on="1"/>
        <pt x="150" y="999" on="1"/>
      </contour>
      <contour>
        <pt x="141" y="12" on="1"/>
        <pt x="147" y="383" on="1"/>
        <pt x="147" y="397" on="0"/>
        <pt x="162" y="397" on="1"/>
        <pt x="270" y="393" on="1"/>
        <pt x="530" y="399" on="1"/>
        <pt x="542" y="399" on="0"/>
        <pt x="555" y="383" on="0"/>
        <pt x="555" y="375" on="1"/>
        <pt x="557" y="27" on="1"/>
        <pt x="557" y="0" on="0"/>
        <pt x="528" y="0" on="1"/>
        <pt x="156" y="-2" on="1"/>
        <pt x="141" y="-2" on="0"/>
      </contour>
    </TTGlyph>
    <TTGlyph name="figuredash" xMin="106" yMin="510" xMax="668" yMax="846">
      <contour>
        <pt x="106" y="829" on="1"/>
        <pt x="106" y="844" on="0"/>
        <pt x="121" y="844" on="1"/>
        <pt x="651" y="846" on="1"/>
        <pt x="657" y="846" on="0"/>
        <pt x="666" y="837" on="0"/>
        <pt x="666" y="831" on="1"/>
        <pt x="662" y="719" on="1"/>
        <pt x="668" y="537" on="1"/>
        <pt x="668" y="525" on="0"/>
        <pt x="651" y="512" on="0"/>
        <pt x="643" y="512" on="1"/>
        <pt x="135" y="510" on="1"/>
        <pt x="109" y="510" on="0"/>
        <pt x="109" y="539" on="1"/>
      </contour>
    </TTGlyph>
    <TTGlyph name="five" xMin="87" yMin="-31" xMax="1077" yMax="1374">
      <contour>
        <pt x="88" y="428" on="1"/>
        <pt x="87" y="432" on="0"/>
        <pt x="90" y="438" on="0"/>
        <pt x="101" y="439" on="0"/>
        <pt x="109" y="434" on="1"/>
        <pt x="148" y="416" on="0"/>
        <pt x="340" y="360" on="0"/>
        <pt x="391" y="360" on="1"/>
        <pt x="483" y="360" on="0"/>
        <pt x="588" y="438" on="0"/>
        <pt x="588" y="506" on="1"/>
        <pt x="588" y="577" on="0"/>
        <pt x="465" y="666" on="0"/>
        <pt x="360" y="666" on="1"/>
        <pt x="299" y="666" on="0"/>
        <pt x="184" y="643" on="1"/>
        <pt x="169" y="641" on="0"/>
        <pt x="160" y="643" on="0"/>
        <pt x="160" y="653" on="1"/>
        <pt x="215" y="1350" on="1"/>
        <pt x="215" y="1364" on="0"/>
        <pt x="231" y="1364" on="1"/>
        <pt x="715" y="1362" on="0"/>
        <pt x="731" y="1362" on="1"/>
        <pt x="918" y="1374" on="1"/>
        <pt x="934" y="1374" on="0"/>
        <pt x="938" y="1360" on="1"/>
        <pt x="1018" y="1016" on="1"/>
        <pt x="1021" y="999" on="0"/>
        <pt x="1004" y="999" on="1"/>
        <pt x="651" y="1022" on="1"/>
        <pt x="637" y="1022" on="0"/>
        <pt x="637" y="1008" on="1"/>
        <pt x="633" y="899" on="1"/>
        <pt x="633" y="885" on="0"/>
        <pt x="645" y="885" on="1"/>
        <pt x="702" y="885" on="0"/>
        <pt x="844" y="849" on="0"/>
        <pt x="895" y="821" on="1"/>
        <pt x="977" y="776" on="0"/>
        <pt x="1077" y="572" on="0"/>
        <pt x="1077" y="455" on="1"/>
        <pt x="1077" y="234" on="0"/>
        <pt x="766" y="-31" on="0"/>
        <pt x="516" y="-31" on="1"/>
        <pt x="452" y="-31" on="0"/>
        <pt x="240" y="15" on="0"/>
        <pt x="205" y="27" on="1"/>
        <pt x="180" y="33" on="0"/>
        <pt x="176" y="51" on="1"/>
      </contour>
    </TTGlyph>
    <TTGlyph name="four" xMin="85" yMin="-4" xMax="1237" yMax="1370">
      <contour>
        <pt x="88" y="563" on="1"/>
        <pt x="85" y="581" on="0"/>
        <pt x="100" y="598" on="1"/>
        <pt x="682" y="1348" on="1"/>
        <pt x="684" y="1352" on="0"/>
        <pt x="702" y="1364" on="0"/>
        <pt x="713" y="1364" on="1"/>
        <pt x="1087" y="1370" on="1"/>
        <pt x="1104" y="1370" on="0"/>
        <pt x="1104" y="1356" on="1"/>
        <pt x="1102" y="586" on="1"/>
        <pt x="1099" y="571" on="0"/>
        <pt x="1116" y="571" on="1"/>
        <pt x="1225" y="571" on="1"/>
        <pt x="1237" y="571" on="0"/>
        <pt x="1237" y="555" on="1"/>
        <pt x="1202" y="283" on="1"/>
        <pt x="1200" y="270" on="0"/>
        <pt x="1180" y="270" on="1"/>
        <pt x="1114" y="272" on="1"/>
        <pt x="1097" y="272" on="0"/>
        <pt x="1100" y="256" on="1"/>
        <pt x="1104" y="14" on="1"/>
        <pt x="1104" y="-1" on="0"/>
        <pt x="1091" y="0" on="1"/>
        <pt x="1090" y="0" on="1"/>
        <pt x="674" y="-4" on="1"/>
        <pt x="667" y="-4" on="0"/>
        <pt x="664" y="1" on="0"/>
        <pt x="664" y="10" on="1"/>
        <pt x="657" y="260" on="1"/>
        <pt x="655" y="274" on="0"/>
        <pt x="639" y="274" on="1"/>
        <pt x="104" y="281" on="1"/>
        <pt x="92" y="281" on="0"/>
        <pt x="92" y="295" on="1"/>
      </contour>
      <contour>
        <pt x="420" y="575" on="1"/>
        <pt x="651" y="582" on="1"/>
        <pt x="664" y="582" on="0"/>
        <pt x="666" y="596" on="1"/>
        <pt x="678" y="893" on="1"/>
      </contour>
    </TTGlyph>
    <TTGlyph name="hyphen" xMin="106" yMin="510" xMax="668" yMax="846">
      <contour>
        <pt x="106" y="829" on="1"/>
        <pt x="106" y="844" on="0"/>
        <pt x="121" y="844" on="1"/>
        <pt x="651" y="846" on="1"/>
        <pt x="657" y="846" on="0"/>
        <pt x="666" y="837" on="0"/>
        <pt x="666" y="831" on="1"/>
        <pt x="662" y="719" on="1"/>
        <pt x="668" y="537" on="1"/>
        <pt x="668" y="525" on="0"/>
        <pt x="651" y="512" on="0"/>
        <pt x="643" y="512" on="1"/>
        <pt x="135" y="510" on="1"/>
        <pt x="109" y="510" on="0"/>
        <pt x="109" y="539" on="1"/>
      </contour>
    </TTGlyph>
    <TTGlyph name="nine" xMin="68" yMin="0" xMax="1135" yMax="1395">
      <contour>
        <pt x="68" y="881" on="1"/>
        <pt x="68" y="1105" on="0"/>
        <pt x="364" y="1395" on="0"/>
        <pt x="594" y="1395" on="1"/>
        <pt x="744" y="1395" on="0"/>
        <pt x="993" y="1249" on="0"/>
        <pt x="1135" y="993" on="0"/>
        <pt x="1135" y="838" on="1"/>
        <pt x="1135" y="607" on="0"/>
        <pt x="965" y="354" on="1"/>
        <pt x="903" y="260" on="0"/>
        <pt x="702" y="18" on="1"/>
        <pt x="692" y="7" on="0"/>
        <pt x="680" y="0" on="0"/>
        <pt x="666" y="0" on="1"/>
        <pt x="170" y="0" on="1"/>
        <pt x="163" y="0" on="0"/>
        <pt x="157" y="6" on="0"/>
        <pt x="162" y="14" on="1"/>
        <pt x="455" y="334" on="0"/>
        <pt x="514" y="436" on="1"/>
        <pt x="307" y="444" on="0"/>
        <pt x="68" y="682" on="0"/>
      </contour>
      <contour>
        <pt x="463" y="856" on="1"/>
        <pt x="463" y="787" on="0"/>
        <pt x="540" y="700" on="0"/>
        <pt x="600" y="702" on="1"/>
        <pt x="660" y="702" on="0"/>
        <pt x="739" y="795" on="0"/>
        <pt x="739" y="866" on="1"/>
        <pt x="738" y="935" on="0"/>
        <pt x="660" y="1020" on="0"/>
        <pt x="600" y="1020" on="1"/>
        <pt x="538" y="1018" on="0"/>
        <pt x="462" y="926" on="0"/>
      </contour>
    </TTGlyph>
    <TTGlyph name="one" xMin="88" yMin="-4" xMax="772" yMax="1364">
      <contour>
        <pt x="88" y="764" on="1"/>
        <pt x="88" y="1114" on="1"/>
        <pt x="88" y="1122" on="0"/>
        <pt x="96" y="1122" on="1"/>
        <pt x="245" y="1155" on="0"/>
        <pt x="319" y="1212" on="1"/>
        <pt x="363" y="1246" on="0"/>
        <pt x="413" y="1309" on="0"/>
        <pt x="434" y="1358" on="1"/>
        <pt x="437" y="1364" on="0"/>
        <pt x="444" y="1364" on="1"/>
        <pt x="762" y="1364" on="1"/>
        <pt x="772" y="1364" on="0"/>
        <pt x="772" y="1354" on="1"/>
        <pt x="762" y="649" on="1"/>
        <pt x="764" y="4" on="1"/>
        <pt x="764" y="-4" on="0"/>
        <pt x="754" y="-4" on="1"/>
        <pt x="307" y="0" on="1"/>
        <pt x="299" y="0" on="0"/>
        <pt x="299" y="10" on="1"/>
        <pt x="311" y="303" on="1"/>
        <pt x="313" y="807" on="1"/>
        <pt x="313" y="812" on="0"/>
        <pt x="303" y="818" on="0"/>
        <pt x="299" y="815" on="1"/>
        <pt x="227" y="770" on="0"/>
        <pt x="98" y="754" on="1"/>
        <pt x="88" y="754" on="0"/>
      </contour>
    </TTGlyph>
    <TTGlyph name="ordmasculine" xMin="82" yMin="651" xMax="848" yMax="1386">
      <contour>
        <pt x="82" y="1018" on="1"/>
        <pt x="82" y="1175" on="0"/>
        <pt x="302" y="1386" on="0"/>
        <pt x="628" y="1386" on="0"/>
        <pt x="848" y="1175" on="0"/>
        <pt x="848" y="1018" on="1"/>
        <pt x="848" y="858" on="0"/>
        <pt x="631" y="651" on="0"/>
        <pt x="465" y="651" on="1"/>
        <pt x="298" y="651" on="0"/>
        <pt x="82" y="858" on="0"/>
      </contour>
      <contour>
        <pt x="350" y="1018" on="1"/>
        <pt x="350" y="955" on="0"/>
        <pt x="412" y="883" on="0"/>
        <pt x="465" y="883" on="1"/>
        <pt x="575" y="883" on="0"/>
        <pt x="575" y="1020" on="1"/>
        <pt x="575" y="1083" on="0"/>
        <pt x="517" y="1151" on="0"/>
        <pt x="463" y="1151" on="1"/>
        <pt x="410" y="1151" on="0"/>
        <pt x="350" y="1084" on="0"/>
        <pt x="350" y="1024" on="1"/>
      </contour>
    </TTGlyph>
    <TTGlyph name="parenleft" xMin="47" yMin="-31" xMax="596" yMax="1395">
      <contour>
        <pt x="47" y="682" on="1"/>
        <pt x="47" y="744" on="0"/>
        <pt x="107" y="934" on="0"/>
        <pt x="194" y="1116" on="0"/>
        <pt x="280" y="1279" on="0"/>
        <pt x="310" y="1330" on="1"/>
        <pt x="340" y="1380" on="1"/>
        <pt x="348" y="1395" on="0"/>
        <pt x="369" y="1395" on="1"/>
        <pt x="573" y="1395" on="1"/>
        <pt x="595" y="1395" on="0"/>
        <pt x="590" y="1378" on="1"/>
        <pt x="581" y="1360" on="0"/>
        <pt x="549" y="1296" on="0"/>
        <pt x="469" y="1114" on="0"/>
        <pt x="408" y="950" on="0"/>
        <pt x="358" y="751" on="0"/>
        <pt x="358" y="682" on="1"/>
        <pt x="358" y="598" on="0"/>
        <pt x="406" y="392" on="0"/>
        <pt x="474" y="220" on="0"/>
        <pt x="542" y="71" on="0"/>
        <pt x="566" y="28" on="1"/>
        <pt x="590" y="-14" on="1"/>
        <pt x="596" y="-28" on="0"/>
        <pt x="591" y="-31" on="0"/>
        <pt x="580" y="-31" on="1"/>
        <pt x="367" y="-31" on="1"/>
        <pt x="357" y="-31" on="0"/>
        <pt x="348" y="-25" on="0"/>
        <pt x="342" y="-14" on="1"/>
        <pt x="330" y="5" on="0"/>
        <pt x="290" y="72" on="0"/>
        <pt x="189" y="260" on="0"/>
        <pt x="111" y="427" on="0"/>
        <pt x="47" y="621" on="0"/>
      </contour>
    </TTGlyph>
    <TTGlyph name="parenright" xMin="-6" yMin="-31" xMax="543" yMax="1395">
      <contour>
        <pt x="-1" y="-31" on="0"/>
        <pt x="-6" y="-28" on="0"/>
        <pt x="0" y="-14" on="1"/>
        <pt x="9" y="2" on="0"/>
        <pt x="41" y="59" on="0"/>
        <pt x="120" y="228" on="0"/>
        <pt x="181" y="388" on="0"/>
        <pt x="231" y="598" on="0"/>
        <pt x="231" y="682" on="1"/>
        <pt x="231" y="751" on="0"/>
        <pt x="183" y="945" on="0"/>
        <pt x="116" y="1123" on="0"/>
        <pt x="48" y="1282" on="0"/>
        <pt x="24" y="1330" on="1"/>
        <pt x="0" y="1378" on="1"/>
        <pt x="-3" y="1388" on="0"/>
        <pt x="5" y="1395" on="0"/>
        <pt x="16" y="1395" on="1"/>
        <pt x="221" y="1395" on="1"/>
        <pt x="242" y="1395" on="0"/>
        <pt x="250" y="1380" on="1"/>
        <pt x="262" y="1361" on="0"/>
        <pt x="301" y="1294" on="0"/>
        <pt x="402" y="1106" on="0"/>
        <pt x="480" y="939" on="0"/>
        <pt x="543" y="744" on="0"/>
        <pt x="543" y="682" on="1"/>
        <pt x="543" y="621" on="0"/>
        <pt x="482" y="432" on="0"/>
        <pt x="396" y="251" on="0"/>
        <pt x="309" y="87" on="0"/>
        <pt x="278" y="36" on="1"/>
        <pt x="248" y="-14" on="1"/>
        <pt x="242" y="-25" on="0"/>
        <pt x="233" y="-31" on="0"/>
        <pt x="223" y="-31" on="1"/>
        <pt x="10" y="-31" on="1"/>
      </contour>
    </TTGlyph>
    <TTGlyph name="period" xMin="98" yMin="-2" xMax="516" yMax="399">
      <contour>
        <pt x="98" y="12" on="1"/>
        <pt x="104" y="383" on="1"/>
        <pt x="104" y="397" on="0"/>
        <pt x="119" y="397" on="1"/>
        <pt x="227" y="393" on="1"/>
        <pt x="489" y="399" on="1"/>
        <pt x="501" y="399" on="0"/>
        <pt x="514" y="383" on="0"/>
        <pt x="514" y="375" on="1"/>
        <pt x="516" y="27" on="1"/>
        <pt x="516" y="0" on="0"/>
        <pt x="487" y="0" on="1"/>
        <pt x="113" y="-2" on="1"/>
        <pt x="98" y="-2" on="0"/>
      </contour>
    </TTGlyph>
    <TTGlyph name="periodcentered" xMin="98" yMin="479" xMax="516" yMax="881">
      <contour>
        <pt x="98" y="494" on="1"/>
        <pt x="104" y="864" on="1"/>
        <pt x="104" y="870" on="0"/>
        <pt x="113" y="879" on="0"/>
        <pt x="119" y="879" on="1"/>
        <pt x="227" y="874" on="1"/>
        <pt x="489" y="881" on="1"/>
        <pt x="501" y="881" on="0"/>
        <pt x="514" y="864" on="0"/>
        <pt x="514" y="856" on="1"/>
        <pt x="516" y="508" on="1"/>
        <pt x="516" y="481" on="0"/>
        <pt x="487" y="481" on="1"/>
        <pt x="113" y="479" on="1"/>
        <pt x="98" y="479" on="0"/>
      </contour>
    </TTGlyph>
    <TTGlyph name="question" xMin="18" yMin="-2" xMax="750" yMax="1395">
      <contour>
        <pt x="20" y="1008" on="1"/>
        <pt x="78" y="1343" on="1"/>
        <pt x="81" y="1357" on="0"/>
        <pt x="90" y="1360" on="1"/>
        <pt x="106" y="1366" on="0"/>
        <pt x="285" y="1395" on="0"/>
        <pt x="330" y="1395" on="1"/>
        <pt x="524" y="1395" on="0"/>
        <pt x="750" y="1237" on="0"/>
        <pt x="750" y="1092" on="1"/>
        <pt x="750" y="987" on="0"/>
        <pt x="688" y="852" on="1"/>
        <pt x="645" y="758" on="0"/>
        <pt x="645" y="735" on="1"/>
        <pt x="655" y="578" on="1"/>
        <pt x="655" y="563" on="0"/>
        <pt x="641" y="563" on="1"/>
        <pt x="262" y="565" on="1"/>
        <pt x="252" y="565" on="0"/>
        <pt x="246" y="574" on="0"/>
        <pt x="248" y="586" on="1"/>
        <pt x="260" y="762" on="0"/>
        <pt x="272" y="799" on="1"/>
        <pt x="277" y="813" on="0"/>
        <pt x="352" y="933" on="0"/>
        <pt x="352" y="965" on="1"/>
        <pt x="352" y="1012" on="0"/>
        <pt x="288" y="1065" on="0"/>
        <pt x="231" y="1065" on="1"/>
        <pt x="209" y="1065" on="0"/>
        <pt x="111" y="1029" on="0"/>
        <pt x="73" y="1011" on="1"/>
        <pt x="35" y="993" on="1"/>
        <pt x="26" y="990" on="0"/>
        <pt x="18" y="999" on="0"/>
      </contour>
      <contour>
        <pt x="242" y="12" on="1"/>
        <pt x="248" y="100" on="1"/>
        <pt x="248" y="383" on="1"/>
        <pt x="248" y="397" on="0"/>
        <pt x="262" y="397" on="1"/>
        <pt x="371" y="393" on="1"/>
        <pt x="631" y="395" on="1"/>
        <pt x="643" y="395" on="0"/>
        <pt x="655" y="379" on="0"/>
        <pt x="655" y="371" on="1"/>
        <pt x="657" y="27" on="1"/>
        <pt x="657" y="0" on="0"/>
        <pt x="629" y="0" on="1"/>
        <pt x="256" y="-2" on="1"/>
        <pt x="242" y="-2" on="0"/>
      </contour>
    </TTGlyph>
    <TTGlyph name="quotedbl" xMin="190" yMin="647" xMax="961" yMax="1368">
      <contour>
        <pt x="190" y="678" on="1"/>
        <pt x="190" y="1350" on="1"/>
        <pt x="190" y="1364" on="0"/>
        <pt x="205" y="1364" on="1"/>
        <pt x="481" y="1368" on="1"/>
        <pt x="496" y="1368" on="0"/>
        <pt x="496" y="1354" on="1"/>
        <pt x="498" y="676" on="1"/>
        <pt x="498" y="664" on="0"/>
        <pt x="481" y="651" on="0"/>
        <pt x="473" y="651" on="1"/>
        <pt x="217" y="649" on="1"/>
        <pt x="190" y="649" on="0"/>
      </contour>
      <contour>
        <pt x="653" y="676" on="1"/>
        <pt x="653" y="1350" on="1"/>
        <pt x="653" y="1364" on="0"/>
        <pt x="668" y="1364" on="1"/>
        <pt x="944" y="1362" on="1"/>
        <pt x="958" y="1362" on="0"/>
        <pt x="958" y="1348" on="1"/>
        <pt x="961" y="676" on="1"/>
        <pt x="961" y="664" on="0"/>
        <pt x="944" y="651" on="0"/>
        <pt x="936" y="651" on="1"/>
        <pt x="680" y="647" on="1"/>
        <pt x="653" y="647" on="0"/>
      </contour>
    </TTGlyph>
    <TTGlyph name="quotedblbase" xMin="98" yMin="-319" xMax="1063" yMax="399">
      <contour>
        <pt x="98" y="12" on="1"/>
        <pt x="104" y="383" on="1"/>
        <pt x="104" y="397" on="0"/>
        <pt x="119" y="397" on="1"/>
        <pt x="248" y="393" on="1"/>
        <pt x="487" y="399" on="1"/>
        <pt x="499" y="399" on="0"/>
        <pt x="512" y="383" on="0"/>
        <pt x="512" y="375" on="1"/>
        <pt x="524" y="23" on="1"/>
        <pt x="408" y="-305" on="1"/>
        <pt x="404" y="-319" on="0"/>
        <pt x="389" y="-319" on="1"/>
        <pt x="166" y="-317" on="1"/>
        <pt x="158" y="-317" on="0"/>
        <pt x="148" y="-308" on="0"/>
        <pt x="152" y="-301" on="1"/>
        <pt x="330" y="10" on="1"/>
        <pt x="127" y="-2" on="0"/>
        <pt x="113" y="-2" on="1"/>
        <pt x="98" y="-2" on="0"/>
      </contour>
      <contour>
        <pt x="637" y="12" on="1"/>
        <pt x="643" y="383" on="1"/>
        <pt x="643" y="397" on="0"/>
        <pt x="657" y="397" on="1"/>
        <pt x="786" y="393" on="1"/>
        <pt x="1026" y="399" on="1"/>
        <pt x="1038" y="399" on="0"/>
        <pt x="1051" y="383" on="0"/>
        <pt x="1051" y="375" on="1"/>
        <pt x="1063" y="23" on="1"/>
        <pt x="946" y="-305" on="1"/>
        <pt x="942" y="-319" on="0"/>
        <pt x="928" y="-319" on="1"/>
        <pt x="705" y="-317" on="1"/>
        <pt x="697" y="-317" on="0"/>
        <pt x="686" y="-308" on="0"/>
        <pt x="690" y="-301" on="1"/>
        <pt x="868" y="10" on="1"/>
        <pt x="665" y="-2" on="0"/>
        <pt x="637" y="-2" on="0"/>
      </contour>
    </TTGlyph>
    <TTGlyph name="quotedblleft" xMin="98" yMin="647" xMax="1063" yMax="1366">
      <contour>
        <pt x="98" y="1024" on="1"/>
        <pt x="215" y="1352" on="1"/>
        <pt x="218" y="1366" on="0"/>
        <pt x="233" y="1366" on="1"/>
        <pt x="457" y="1364" on="1"/>
        <pt x="465" y="1364" on="0"/>
        <pt x="475" y="1355" on="0"/>
        <pt x="471" y="1348" on="1"/>
        <pt x="293" y="1036" on="1"/>
        <pt x="496" y="1049" on="0"/>
        <pt x="524" y="1049" on="0"/>
        <pt x="524" y="1034" on="1"/>
        <pt x="518" y="664" on="1"/>
        <pt x="518" y="649" on="0"/>
        <pt x="504" y="649" on="1"/>
        <pt x="375" y="653" on="1"/>
        <pt x="135" y="647" on="1"/>
        <pt x="123" y="647" on="0"/>
        <pt x="111" y="664" on="0"/>
        <pt x="111" y="672" on="1"/>
      </contour>
      <contour>
        <pt x="637" y="1024" on="1"/>
        <pt x="754" y="1352" on="1"/>
        <pt x="758" y="1366" on="0"/>
        <pt x="772" y="1366" on="1"/>
        <pt x="995" y="1364" on="1"/>
        <pt x="1003" y="1364" on="0"/>
        <pt x="1014" y="1355" on="0"/>
        <pt x="1010" y="1348" on="1"/>
        <pt x="831" y="1036" on="1"/>
        <pt x="1035" y="1049" on="0"/>
        <pt x="1063" y="1049" on="0"/>
        <pt x="1063" y="1034" on="1"/>
        <pt x="1057" y="664" on="1"/>
        <pt x="1057" y="658" on="0"/>
        <pt x="1048" y="649" on="0"/>
        <pt x="1042" y="649" on="1"/>
        <pt x="913" y="653" on="1"/>
        <pt x="674" y="647" on="1"/>
        <pt x="662" y="647" on="0"/>
        <pt x="649" y="664" on="0"/>
        <pt x="649" y="672" on="1"/>
      </contour>
    </TTGlyph>
    <TTGlyph name="quotedblright" xMin="98" yMin="647" xMax="1063" yMax="1366">
      <contour>
        <pt x="98" y="979" on="1"/>
        <pt x="104" y="1350" on="1"/>
        <pt x="104" y="1364" on="0"/>
        <pt x="119" y="1364" on="1"/>
        <pt x="248" y="1360" on="1"/>
        <pt x="487" y="1366" on="1"/>
        <pt x="499" y="1366" on="0"/>
        <pt x="512" y="1349" on="0"/>
        <pt x="512" y="1341" on="1"/>
        <pt x="524" y="989" on="1"/>
        <pt x="408" y="662" on="1"/>
        <pt x="404" y="647" on="0"/>
        <pt x="389" y="647" on="1"/>
        <pt x="166" y="649" on="1"/>
        <pt x="158" y="649" on="0"/>
        <pt x="148" y="659" on="0"/>
        <pt x="152" y="666" on="1"/>
        <pt x="330" y="977" on="1"/>
        <pt x="127" y="965" on="0"/>
        <pt x="113" y="965" on="1"/>
        <pt x="98" y="965" on="0"/>
      </contour>
      <contour>
        <pt x="637" y="979" on="1"/>
        <pt x="643" y="1350" on="1"/>
        <pt x="643" y="1364" on="0"/>
        <pt x="657" y="1364" on="1"/>
        <pt x="786" y="1360" on="1"/>
        <pt x="1026" y="1366" on="1"/>
        <pt x="1038" y="1366" on="0"/>
        <pt x="1051" y="1349" on="0"/>
        <pt x="1051" y="1341" on="1"/>
        <pt x="1063" y="989" on="1"/>
        <pt x="946" y="662" on="1"/>
        <pt x="942" y="647" on="0"/>
        <pt x="928" y="647" on="1"/>
        <pt x="705" y="649" on="1"/>
        <pt x="697" y="649" on="0"/>
        <pt x="686" y="659" on="0"/>
        <pt x="690" y="666" on="1"/>
        <pt x="868" y="977" on="1"/>
        <pt x="665" y="965" on="0"/>
        <pt x="637" y="965" on="0"/>
      </contour>
    </TTGlyph>
    <TTGlyph name="quoteleft" xMin="98" yMin="647" xMax="524" yMax="1366">
      <contour>
        <pt x="98" y="1024" on="1"/>
        <pt x="215" y="1352" on="1"/>
        <pt x="218" y="1366" on="0"/>
        <pt x="233" y="1366" on="1"/>
        <pt x="457" y="1364" on="1"/>
        <pt x="465" y="1364" on="0"/>
        <pt x="475" y="1355" on="0"/>
        <pt x="471" y="1348" on="1"/>
        <pt x="293" y="1036" on="1"/>
        <pt x="496" y="1049" on="0"/>
        <pt x="524" y="1049" on="0"/>
        <pt x="524" y="1034" on="1"/>
        <pt x="518" y="664" on="1"/>
        <pt x="518" y="649" on="0"/>
        <pt x="504" y="649" on="1"/>
        <pt x="375" y="653" on="1"/>
        <pt x="135" y="647" on="1"/>
        <pt x="123" y="647" on="0"/>
        <pt x="111" y="664" on="0"/>
        <pt x="111" y="672" on="1"/>
      </contour>
    </TTGlyph>
    <TTGlyph name="quoteright" xMin="98" yMin="647" xMax="524" yMax="1366">
      <contour>
        <pt x="98" y="979" on="1"/>
        <pt x="104" y="1350" on="1"/>
        <pt x="104" y="1364" on="0"/>
        <pt x="119" y="1364" on="1"/>
        <pt x="248" y="1360" on="1"/>
        <pt x="487" y="1366" on="1"/>
        <pt x="499" y="1366" on="0"/>
        <pt x="512" y="1349" on="0"/>
        <pt x="512" y="1341" on="1"/>
        <pt x="524" y="989" on="1"/>
        <pt x="408" y="662" on="1"/>
        <pt x="404" y="647" on="0"/>
        <pt x="389" y="647" on="1"/>
        <pt x="166" y="649" on="1"/>
        <pt x="158" y="649" on="0"/>
        <pt x="148" y="659" on="0"/>
        <pt x="152" y="666" on="1"/>
        <pt x="330" y="977" on="1"/>
        <pt x="127" y="965" on="0"/>
        <pt x="113" y="965" on="1"/>
        <pt x="98" y="965" on="0"/>
      </contour>
    </TTGlyph>
    <TTGlyph name="quotesinglbase" xMin="98" yMin="-319" xMax="524" yMax="399">
      <contour>
        <pt x="98" y="12" on="1"/>
        <pt x="104" y="383" on="1"/>
        <pt x="104" y="397" on="0"/>
        <pt x="119" y="397" on="1"/>
        <pt x="248" y="393" on="1"/>
        <pt x="487" y="399" on="1"/>
        <pt x="499" y="399" on="0"/>
        <pt x="512" y="383" on="0"/>
        <pt x="512" y="375" on="1"/>
        <pt x="524" y="23" on="1"/>
        <pt x="408" y="-305" on="1"/>
        <pt x="404" y="-319" on="0"/>
        <pt x="389" y="-319" on="1"/>
        <pt x="166" y="-317" on="1"/>
        <pt x="158" y="-317" on="0"/>
        <pt x="148" y="-308" on="0"/>
        <pt x="152" y="-301" on="1"/>
        <pt x="330" y="10" on="1"/>
        <pt x="127" y="-2" on="0"/>
        <pt x="113" y="-2" on="1"/>
        <pt x="98" y="-2" on="0"/>
      </contour>
    </TTGlyph>
    <TTGlyph name="quotesingle" xMin="190" yMin="647" xMax="498" yMax="1368">
      <contour>
        <pt x="190" y="678" on="1"/>
        <pt x="190" y="1350" on="1"/>
        <pt x="190" y="1364" on="0"/>
        <pt x="205" y="1364" on="1"/>
        <pt x="481" y="1368" on="1"/>
        <pt x="496" y="1368" on="0"/>
        <pt x="496" y="1354" on="1"/>
        <pt x="498" y="672" on="1"/>
        <pt x="498" y="660" on="0"/>
        <pt x="481" y="647" on="0"/>
        <pt x="473" y="647" on="1"/>
        <pt x="217" y="649" on="1"/>
        <pt x="190" y="649" on="0"/>
      </contour>
    </TTGlyph>
    <TTGlyph name="semicolon" xMin="98" yMin="-319" xMax="524" yMax="991">
      <contour>
        <pt x="98" y="12" on="1"/>
        <pt x="104" y="383" on="1"/>
        <pt x="104" y="397" on="0"/>
        <pt x="119" y="397" on="1"/>
        <pt x="248" y="393" on="1"/>
        <pt x="487" y="399" on="1"/>
        <pt x="499" y="399" on="0"/>
        <pt x="512" y="383" on="0"/>
        <pt x="512" y="375" on="1"/>
        <pt x="524" y="23" on="1"/>
        <pt x="408" y="-305" on="1"/>
        <pt x="404" y="-319" on="0"/>
        <pt x="389" y="-319" on="1"/>
        <pt x="166" y="-317" on="1"/>
        <pt x="158" y="-317" on="0"/>
        <pt x="148" y="-308" on="0"/>
        <pt x="152" y="-301" on="1"/>
        <pt x="330" y="10" on="1"/>
        <pt x="127" y="-2" on="0"/>
        <pt x="113" y="-2" on="1"/>
        <pt x="98" y="-2" on="0"/>
      </contour>
      <contour>
        <pt x="106" y="963" on="1"/>
        <pt x="105" y="975" on="0"/>
        <pt x="121" y="987" on="0"/>
        <pt x="131" y="987" on="1"/>
        <pt x="479" y="991" on="1"/>
        <pt x="506" y="991" on="0"/>
        <pt x="506" y="961" on="1"/>
        <pt x="508" y="635" on="0"/>
        <pt x="508" y="588" on="1"/>
        <pt x="505" y="573" on="0"/>
        <pt x="494" y="573" on="1"/>
        <pt x="123" y="580" on="1"/>
        <pt x="107" y="584" on="0"/>
        <pt x="109" y="594" on="1"/>
        <pt x="111" y="702" on="1"/>
      </contour>
    </TTGlyph>
    <TTGlyph name="seven" xMin="2" yMin="-6" xMax="1058" yMax="1368">
      <contour>
        <pt x="6" y="1020" on="1"/>
        <pt x="90" y="1356" on="1"/>
        <pt x="93" y="1368" on="0"/>
        <pt x="106" y="1368" on="1"/>
        <pt x="311" y="1360" on="1"/>
        <pt x="1030" y="1364" on="1"/>
        <pt x="1058" y="1364" on="0"/>
        <pt x="1049" y="1343" on="1"/>
        <pt x="907" y="1004" on="1"/>
        <pt x="578" y="10" on="1"/>
        <pt x="573" y="-6" on="0"/>
        <pt x="551" y="-6" on="1"/>
        <pt x="125" y="2" on="1"/>
        <pt x="107" y="2" on="0"/>
        <pt x="113" y="20" on="1"/>
        <pt x="444" y="999" on="1"/>
        <pt x="449" y="1018" on="0"/>
        <pt x="434" y="1018" on="1"/>
        <pt x="20" y="1006" on="1"/>
        <pt x="2" y="1006" on="0"/>
      </contour>
    </TTGlyph>
    <TTGlyph name="six" xMin="68" yMin="-31" xMax="1135" yMax="1364">
      <contour>
        <pt x="68" y="526" on="1"/>
        <pt x="68" y="757" on="0"/>
        <pt x="238" y="1010" on="1"/>
        <pt x="272" y="1061" on="0"/>
        <pt x="391" y="1217" on="0"/>
        <pt x="478" y="1332" on="0"/>
        <pt x="485" y="1346" on="1"/>
        <pt x="494" y="1364" on="0"/>
        <pt x="522" y="1364" on="1"/>
        <pt x="1014" y="1364" on="1"/>
        <pt x="1031" y="1364" on="0"/>
        <pt x="1020" y="1350" on="1"/>
        <pt x="938" y="1256" on="0"/>
        <pt x="868" y="1178" on="1"/>
        <pt x="811" y="1117" on="0"/>
        <pt x="735" y="1010" on="0"/>
        <pt x="688" y="928" on="1"/>
        <pt x="895" y="920" on="0"/>
        <pt x="1135" y="682" on="0"/>
        <pt x="1135" y="483" on="1"/>
        <pt x="1135" y="259" on="0"/>
        <pt x="839" y="-31" on="0"/>
        <pt x="610" y="-31" on="1"/>
        <pt x="380" y="-31" on="0"/>
        <pt x="68" y="290" on="0"/>
      </contour>
      <contour>
        <pt x="465" y="498" on="1"/>
        <pt x="465" y="430" on="0"/>
        <pt x="543" y="344" on="0"/>
        <pt x="604" y="344" on="1"/>
        <pt x="664" y="346" on="0"/>
        <pt x="741" y="438" on="0"/>
        <pt x="741" y="508" on="1"/>
        <pt x="739" y="578" on="0"/>
        <pt x="663" y="663" on="0"/>
        <pt x="602" y="662" on="1"/>
        <pt x="542" y="662" on="0"/>
        <pt x="464" y="568" on="0"/>
      </contour>
    </TTGlyph>
    <TTGlyph name="slash" xMin="-133" yMin="-31" xMax="894" yMax="1395">
      <contour>
        <pt x="-125" y="-12" on="1"/>
        <pt x="551" y="1380" on="1"/>
        <pt x="558" y="1395" on="0"/>
        <pt x="573" y="1395" on="1"/>
        <pt x="879" y="1395" on="1"/>
        <pt x="885" y="1395" on="0"/>
        <pt x="894" y="1386" on="0"/>
        <pt x="891" y="1380" on="1"/>
        <pt x="532" y="649" on="1"/>
        <pt x="209" y="-16" on="1"/>
        <pt x="203" y="-31" on="0"/>
        <pt x="180" y="-31" on="1"/>
        <pt x="-119" y="-31" on="1"/>
        <pt x="-133" y="-31" on="0"/>
      </contour>
    </TTGlyph>
    <TTGlyph name="three" xMin="113" yMin="-31" xMax="1024" yMax="1395">
      <contour>
        <pt x="113" y="420" on="1"/>
        <pt x="113" y="425" on="0"/>
        <pt x="118" y="429" on="0"/>
        <pt x="123" y="426" on="1"/>
        <pt x="198" y="375" on="0"/>
        <pt x="318" y="338" on="0"/>
        <pt x="389" y="338" on="1"/>
        <pt x="459" y="338" on="0"/>
        <pt x="551" y="417" on="0"/>
        <pt x="551" y="469" on="1"/>
        <pt x="551" y="531" on="0"/>
        <pt x="443" y="602" on="0"/>
        <pt x="348" y="602" on="1"/>
        <pt x="305" y="600" on="1"/>
        <pt x="295" y="600" on="0"/>
        <pt x="287" y="607" on="0"/>
        <pt x="287" y="618" on="1"/>
        <pt x="293" y="795" on="1"/>
        <pt x="293" y="797" on="0"/>
        <pt x="293" y="799" on="1"/>
        <pt x="293" y="809" on="0"/>
        <pt x="297" y="812" on="0"/>
        <pt x="309" y="811" on="1"/>
        <pt x="324" y="809" on="0"/>
        <pt x="334" y="809" on="1"/>
        <pt x="431" y="809" on="0"/>
        <pt x="541" y="887" on="0"/>
        <pt x="541" y="948" on="1"/>
        <pt x="541" y="1002" on="0"/>
        <pt x="469" y="1063" on="0"/>
        <pt x="406" y="1063" on="1"/>
        <pt x="273" y="1063" on="0"/>
        <pt x="164" y="999" on="1"/>
        <pt x="155" y="994" on="0"/>
        <pt x="138" y="1001" on="0"/>
        <pt x="141" y="1014" on="1"/>
        <pt x="221" y="1341" on="1"/>
        <pt x="222" y="1343" on="1"/>
        <pt x="229" y="1356" on="0"/>
        <pt x="240" y="1358" on="1"/>
        <pt x="425" y="1395" on="0"/>
        <pt x="512" y="1395" on="1"/>
        <pt x="718" y="1395" on="0"/>
        <pt x="967" y="1201" on="0"/>
        <pt x="967" y="1040" on="1"/>
        <pt x="967" y="930" on="0"/>
        <pt x="848" y="774" on="0"/>
        <pt x="737" y="737" on="1"/>
        <pt x="885" y="681" on="0"/>
        <pt x="1024" y="512" on="0"/>
        <pt x="1024" y="385" on="1"/>
        <pt x="1024" y="193" on="0"/>
        <pt x="736" y="-31" on="0"/>
        <pt x="496" y="-31" on="1"/>
        <pt x="422" y="-31" on="0"/>
        <pt x="208" y="-3" on="0"/>
        <pt x="156" y="14" on="1"/>
        <pt x="135" y="20" on="0"/>
        <pt x="121" y="32" on="0"/>
        <pt x="121" y="45" on="1"/>
      </contour>
    </TTGlyph>
    <TTGlyph name="two" xMin="42" yMin="-9" xMax="1018" yMax="1395">
      <contour>
        <pt x="45" y="229" on="1"/>
        <pt x="42" y="241" on="0"/>
        <pt x="53" y="246" on="1"/>
        <pt x="292" y="385" on="0"/>
        <pt x="520" y="649" on="0"/>
        <pt x="520" y="797" on="1"/>
        <pt x="520" y="881" on="0"/>
        <pt x="412" y="987" on="0"/>
        <pt x="328" y="987" on="1"/>
        <pt x="283" y="987" on="0"/>
        <pt x="136" y="939" on="0"/>
        <pt x="86" y="907" on="1"/>
        <pt x="80" y="904" on="0"/>
        <pt x="70" y="912" on="0"/>
        <pt x="72" y="918" on="1"/>
        <pt x="178" y="1339" on="1"/>
        <pt x="181" y="1350" on="0"/>
        <pt x="193" y="1354" on="1"/>
        <pt x="314" y="1395" on="0"/>
        <pt x="463" y="1395" on="1"/>
        <pt x="689" y="1395" on="0"/>
        <pt x="956" y="1153" on="0"/>
        <pt x="956" y="948" on="1"/>
        <pt x="956" y="793" on="0"/>
        <pt x="887" y="664" on="1"/>
        <pt x="794" y="485" on="0"/>
        <pt x="668" y="354" on="1"/>
        <pt x="1008" y="369" on="1"/>
        <pt x="1012" y="369" on="0"/>
        <pt x="1018" y="361" on="0"/>
        <pt x="1016" y="356" on="1"/>
        <pt x="932" y="-2" on="1"/>
        <pt x="932" y="-5" on="0"/>
        <pt x="927" y="-9" on="0"/>
        <pt x="924" y="-8" on="1"/>
        <pt x="748" y="0" on="1"/>
        <pt x="96" y="0" on="1"/>
        <pt x="85" y="0" on="0"/>
        <pt x="82" y="14" on="1"/>
      </contour>
    </TTGlyph>
    <TTGlyph name="underscore" xMin="106" yMin="-500" xMax="1370" yMax="-166">
      <contour>
        <pt x="106" y="-180" on="1"/>
        <pt x="106" y="-166" on="0"/>
        <pt x="121" y="-166" on="1"/>
        <pt x="1354" y="-168" on="1"/>
        <pt x="1368" y="-168" on="0"/>
        <pt x="1368" y="-182" on="1"/>
        <pt x="1365" y="-285" on="0"/>
        <pt x="1365" y="-304" on="0"/>
        <pt x="1370" y="-473" on="1"/>
        <pt x="1370" y="-485" on="0"/>
        <pt x="1354" y="-498" on="0"/>
        <pt x="1346" y="-498" on="1"/>
        <pt x="240" y="-496" on="1"/>
        <pt x="135" y="-500" on="1"/>
        <pt x="109" y="-500" on="0"/>
        <pt x="109" y="-471" on="1"/>
      </contour>
    </TTGlyph>
    <TTGlyph name="uni00AD" xMin="106" yMin="510" xMax="668" yMax="846">
      <contour>
        <pt x="106" y="829" on="1"/>
        <pt x="106" y="844" on="0"/>
        <pt x="121" y="844" on="1"/>
        <pt x="651" y="846" on="1"/>
        <pt x="657" y="846" on="0"/>
        <pt x="666" y="837" on="0"/>
        <pt x="666" y="831" on="1"/>
        <pt x="662" y="719" on="1"/>
        <pt x="668" y="537" on="1"/>
        <pt x="668" y="525" on="0"/>
        <pt x="651" y="512" on="0"/>
        <pt x="643" y="512" on="1"/>
        <pt x="135" y="510" on="1"/>
        <pt x="109" y="510" on="0"/>
        <pt x="109" y="539" on="1"/>
      </contour>
    </TTGlyph>
    <TTGlyph name="uni2010" xMin="106" yMin="510" xMax="668" yMax="846">
      <contour>
        <pt x="106" y="829" on="1"/>
        <pt x="106" y="844" on="0"/>
        <pt x="121" y="844" on="1"/>
        <pt x="651" y="846" on="1"/>
        <pt x="657" y="846" on="0"/>
        <pt x="666" y="837" on="0"/>
        <pt x="666" y="831" on="1"/>
        <pt x="662" y="719" on="1"/>
        <pt x="668" y="537" on="1"/>
        <pt x="668" y="525" on="0"/>
        <pt x="651" y="512" on="0"/>
        <pt x="643" y="512" on="1"/>
        <pt x="135" y="510" on="1"/>
        <pt x="109" y="510" on="0"/>
        <pt x="109" y="539" on="1"/>
      </contour>
    </TTGlyph>
    <TTGlyph name="uni2011" xMin="106" yMin="510" xMax="668" yMax="846">
      <contour>
        <pt x="106" y="829" on="1"/>
        <pt x="106" y="844" on="0"/>
        <pt x="121" y="844" on="1"/>
        <pt x="651" y="846" on="1"/>
        <pt x="657" y="846" on="0"/>
        <pt x="666" y="837" on="0"/>
        <pt x="666" y="831" on="1"/>
        <pt x="662" y="719" on="1"/>
        <pt x="668" y="537" on="1"/>
        <pt x="668" y="525" on="0"/>
        <pt x="651" y="512" on="0"/>
        <pt x="643" y="512" on="1"/>
        <pt x="135" y="510" on="1"/>
        <pt x="109" y="510" on="0"/>
        <pt x="109" y="539" on="1"/>
      </contour>
    </TTGlyph>
    <TTGlyph name="uni25FC" xMin="0" yMin="0" xMax="0" yMax="0">
      <contour>
        <pt x="0" y="0" on="1"/>
      </contour>
    </TTGlyph>
    <TTGlyph name="zero" xMin="68" yMin="-31" xMax="1239" yMax="1395">
      <contour>
        <pt x="68" y="666" on="1"/>
        <pt x="68" y="825" on="0"/>
        <pt x="141" y="1080" on="0"/>
        <pt x="260" y="1242" on="0"/>
        <pt x="421" y="1351" on="0"/>
        <pt x="585" y="1395" on="0"/>
        <pt x="672" y="1395" on="1"/>
        <pt x="930" y="1395" on="0"/>
        <pt x="1239" y="1012" on="0"/>
        <pt x="1239" y="692" on="1"/>
        <pt x="1239" y="440" on="0"/>
        <pt x="1122" y="246" on="1"/>
        <pt x="1037" y="103" on="0"/>
        <pt x="801" y="-31" on="0"/>
        <pt x="633" y="-31" on="1"/>
        <pt x="375" y="-31" on="0"/>
        <pt x="68" y="348" on="0"/>
      </contour>
      <contour>
        <pt x="489" y="662" on="1"/>
        <pt x="492" y="523" on="0"/>
        <pt x="518" y="449" on="1"/>
        <pt x="535" y="399" on="0"/>
        <pt x="609" y="340" on="0"/>
        <pt x="655" y="340" on="1"/>
        <pt x="822" y="343" on="0"/>
        <pt x="819" y="688" on="1"/>
        <pt x="818" y="855" on="0"/>
        <pt x="737" y="1014" on="0"/>
        <pt x="655" y="1014" on="1"/>
        <pt x="486" y="1011" on="0"/>
      </contour>
    </TTGlyph>
</ttFont>
